<?xml version="1.0" encoding="utf-8"?>
<!-- Generator: Adobe Illustrator 19.0.0, SVG Export Plug-In . SVG Version: 6.00 Build 0)  -->
<svg version="1.1" id="Layer_1" xmlns="http://www.w3.org/2000/svg" xmlns:xlink="http://www.w3.org/1999/xlink" x="0px" y="0px"
	 viewBox="0 0 39.2 19.3" style="enable-background:new 0 0 39.2 19.3;" xml:space="preserve">
<style type="text/css">
	.st0{fill:#FF5A5F;}
	.st1{fill:none;stroke:#FF5A5F;stroke-width:2;stroke-miterlimit:10;}
	.st2{fill:#FF5A5F;stroke:#FF5A5F;stroke-miterlimit:10;}
	.st3{fill:#FFFFFF;}
	.st4{fill:#DCE0E0;}
</style>
<g id="XMLID_649_">
	<g id="XMLID_651_">
		<circle id="XMLID_654_" class="st0" cx="156.2" cy="-8.5" r="10.4"/>
		<g id="XMLID_652_">
			<path id="XMLID_653_" class="st0" d="M155.9,18.8c8,0,14.9-4.5,18.4-11c-4.6-4.5-10.9-7.2-17.8-7.2c-7.3,0-13.9,3.1-18.6,8
				C141.6,14.7,148.3,18.8,155.9,18.8z"/>
		</g>
	</g>
	<circle id="XMLID_650_" class="st1" cx="156.2" cy="-4.2" r="22.5"/>
</g>
<g id="XMLID_646_">
	<path id="XMLID_647_" class="st2" d="M85.5-3.9c0.3-0.3,0.8-0.3,1.1,0c0.3,0.3,0.3,0.8,0,1.1c-1.1,1.1-2.4,2-3.9,2.6l0,0
		c-1.4,0.6-3,0.9-4.6,0.9c-1.6,0-3.2-0.3-4.6-0.9c-1.5-0.6-2.8-1.5-3.9-2.6c-1.1-1.1-2-2.4-2.6-3.9c-0.6-1.4-0.9-3-0.9-4.6
		c0-1.6,0.3-3.2,0.9-4.6c0.6-1.5,1.5-2.8,2.6-3.9s2.4-2,3.9-2.6c1.4-0.6,3-0.9,4.6-0.9c1.6,0,3.2,0.3,4.6,0.9
		c1.5,0.6,2.8,1.5,3.9,2.6c0.3,0.3,0.3,0.8,0,1.1c-0.3,0.3-0.8,0.3-1.1,0c-1-1-2.1-1.8-3.4-2.3c-1.2-0.5-2.6-0.8-4-0.8
		s-2.8,0.3-4,0.8c-1.3,0.5-2.4,1.3-3.4,2.3c-1,1-1.8,2.1-2.3,3.4c-0.5,1.2-0.8,2.6-0.8,4c0,1.4,0.3,2.8,0.8,4
		c0.5,1.3,1.3,2.4,2.3,3.4c1,1,2.1,1.8,3.4,2.3c1.2,0.5,2.6,0.8,4,0.8c1.4,0,2.8-0.3,4-0.8v0l0,0C83.4-2.2,84.5-3,85.5-3.9z"/>
	<circle id="XMLID_547_" class="st1" cx="77.9" cy="-11.5" r="22.5"/>
</g>
<g id="XMLID_846_">
	<path id="XMLID_848_" class="st0" d="M29.5,19.3H9.7C4.3,19.3,0,15,0,9.7v0C0,4.3,4.3,0,9.7,0l19.8,0c5.3,0,9.7,4.3,9.7,9.7v0
		C39.2,15,34.8,19.3,29.5,19.3z"/>
	<g id="XMLID_844_">
		<path id="XMLID_1241_" class="st3" d="M8.9,9.8c0-3.7,2-6,4.9-6c2.9,0,5,2.3,5,6c0,3.7-2,6.1-5,6.1C10.9,15.9,8.9,13.5,8.9,9.8z
			 M17.4,9.8c0-3-1.4-4.8-3.6-4.8c-2.2,0-3.6,1.9-3.6,4.8c0,3,1.4,4.9,3.6,4.9C16,14.7,17.4,12.8,17.4,9.8z"/>
		<path id="XMLID_1244_" class="st3" d="M21.4,4h1.4l4.4,7.6l1.3,2.4h0.1c-0.1-1.2-0.2-2.4-0.2-3.6V4h1.3v11.7h-1.4l-4.4-7.6
			l-1.3-2.4h-0.1c0.1,1.2,0.2,2.4,0.2,3.6v6.4h-1.2V4z"/>
	</g>
</g>
<g id="XMLID_842_">
	<path id="XMLID_845_" class="st4" d="M29.5,69.3H9.7C4.3,69.3,0,65,0,59.7v0C0,54.3,4.3,50,9.7,50h19.8c5.3,0,9.7,4.3,9.7,9.7v0
		C39.2,65,34.8,69.3,29.5,69.3z"/>
	<g id="XMLID_1233_">
		<path id="XMLID_1234_" class="st3" d="M5.1,59.8c0-3.7,2-6,4.9-6c2.9,0,5,2.3,5,6c0,3.7-2,6.1-5,6.1C7.2,65.9,5.1,63.5,5.1,59.8z
			 M13.7,59.8c0-3-1.4-4.8-3.6-4.8c-2.2,0-3.6,1.9-3.6,4.8c0,3,1.4,4.9,3.6,4.9C12.3,64.7,13.7,62.8,13.7,59.8z"/>
		<path id="XMLID_1237_" class="st3" d="M17.6,53.9h6.7v1.1h-5.3v4.1h4.5v1.1h-4.5v5.3h-1.3V53.9z"/>
		<path id="XMLID_1239_" class="st3" d="M26.3,53.9H33v1.1h-5.3v4.1h4.5v1.1h-4.5v5.3h-1.3V53.9z"/>
	</g>
</g>
<g id="XMLID_1200_">
	<path id="XMLID_1201_" class="st0" d="M102,73.9c0-7.4,4.1-13.7,11.9-13.7c3,0,5.3,1,7.8,3.4c0.9,1,1,2.6,0.1,3.7
		c-0.9,0.9-2.3,0.8-3.1-0.1c-1.4-1.6-2.8-2.1-4.8-2.1c-5.2,0-7.8,4.2-7.8,8.8c0,4.7,2.5,9.1,7.8,9.1c1.9,0,3.7-0.9,5.3-2.4
		c1.1-0.9,2.5-0.5,3.1,0.5c0.5,0.8,0.8,2.2-0.4,3.6c-2.4,2.5-5.2,3-8.1,3C105.7,87.5,102,81.3,102,73.9z"/>
	<path id="XMLID_1203_" class="st0" d="M126.8,63.2c0-1.3,1-2.3,2.1-2.3c1.1,0,2,1.1,2,2.3v19.1h9.2c3.3,0,3.4,5,0,5h-11.3
		c-1.2,0-2.1-1-2.1-2.3V63.2z"/>
	<path id="XMLID_1205_" class="st0" d="M145.7,87.3c-1.1-0.7-1.8-2.1-1.1-3.7l9.8-21.4c0.9-2,3.4-2.1,4.2,0l9.6,21.4
		c1.4,3-2.7,5.3-3.9,2.4l-1.5-3.4h-12.5l-1.5,3.4C148.2,87.3,146.9,87.5,145.7,87.3z M160.3,77.6l-3.8-9.4l-4.2,9.4H160.3z"/>
	<path id="XMLID_1208_" class="st0" d="M170.9,66.6c0.8-7.4,10.7-8.7,15.4-4.7c2.3,2.1-0.1,5.4-2.2,3.7c-2.5-1.8-8.2-2.6-8.9,1.3
		c-0.9,6.2,13.9,2.7,13.6,12.8c-0.2,9.7-12.7,9.9-17.4,5.6c-1.1-1-1.1-2.7-0.5-3.7c0.9-1,1.9-1.3,3-0.3c2.8,2.1,10,3.7,10.5-1.7
		C184,74.1,169.8,77.4,170.9,66.6z"/>
	<path id="XMLID_1210_" class="st0" d="M192.3,66.6c0.8-7.4,10.7-8.7,15.4-4.7c2.3,2.1-0.1,5.4-2.2,3.7c-2.5-1.8-8.2-2.6-8.9,1.3
		c-0.9,6.2,13.9,2.7,13.6,12.8c-0.2,9.7-12.7,9.9-17.4,5.6c-1.1-1-1.1-2.7-0.5-3.7c0.9-1,1.9-1.3,3-0.3c2.8,2.1,10,3.7,10.5-1.7
		C205.4,74.1,191.3,77.4,192.3,66.6z"/>
	<path id="XMLID_1212_" class="st0" d="M214.2,63.2c0-1.3,1-2.3,2.1-2.3c1.1,0,2,1.1,2,2.3v19.1h9.2c3.3,0,3.4,5,0,5h-11.3
		c-1.2,0-2.1-1-2.1-2.3V63.2z"/>
	<path id="XMLID_1214_" class="st0" d="M233.8,63.2c0-3.1,4.5-3.2,4.5,0v21.7c0,3.2-4.5,3.2-4.5,0V63.2z"/>
	<path id="XMLID_1216_" class="st0" d="M255.3,87.7c-6.3,0.3-12.8-4.4-12.8-13.7c0-9.4,6.5-14,12.8-14c5.9,0.3,12.2,5,12.2,14
		S261.3,87.7,255.3,87.7z M254.9,64.9c-3.8,0-8,3-8,9c0,6,4.1,9,8,9c3.9,0,8.1-3,8.1-9C263,67.9,258.9,64.9,254.9,64.9z"/>
	<path id="XMLID_1219_" class="st0" d="M271.7,63.6c0-1.4,0.3-2.7,2-2.7c1.2,0,1.5,0.3,2.4,1.3L287.4,78V63.2c0-1.3,1-2.6,2.1-2.6
		c1.2,0,2.4,1.4,2.4,2.6v21.4c0,1.7-0.9,2.3-1.8,2.6c-1.2,0-1.8-0.3-2.8-1.3l-11.3-16v14.7c0,1.7-0.9,2.6-2.1,2.6s-2.3-1-2.3-2.6
		V63.6z"/>
</g>
</svg>
