<?xml version="1.0" encoding="utf-8"?>
<!-- Generator: Adobe Illustrator 19.0.0, SVG Export Plug-In . SVG Version: 6.00 Build 0)  -->
<svg version="1.1" id="Layer_1" xmlns="http://www.w3.org/2000/svg" xmlns:xlink="http://www.w3.org/1999/xlink" x="0px" y="0px"
	 viewBox="0 0 20.8 27.3" style="enable-background:new 0 0 20.8 27.3;" xml:space="preserve">
<style type="text/css">
	.st0{fill:#FF5A5F;}
</style>
<g id="XMLID_1200_">
	<path id="XMLID_1201_" class="st0" d="M47.1-48.2c0-7.4,4.1-13.7,11.9-13.7c3,0,5.3,1,7.8,3.4c0.9,1,1,2.6,0.1,3.7
		c-0.9,0.9-2.3,0.8-3.1-0.1C62.4-56.6,61-57,59.1-57c-5.2,0-7.8,4.2-7.8,8.8c0,4.7,2.5,9.1,7.8,9.1c1.9,0,3.7-0.9,5.3-2.4
		c1.1-0.9,2.5-0.5,3.1,0.5c0.5,0.8,0.8,2.2-0.4,3.6c-2.4,2.5-5.2,3-8.1,3C50.8-34.6,47.1-40.9,47.1-48.2z"/>
	<path id="XMLID_1203_" class="st0" d="M71.9-58.9c0-1.3,1-2.3,2.1-2.3c1.1,0,2,1.1,2,2.3v19.1h9.2c3.3,0,3.4,5,0,5H74.1
		c-1.2,0-2.1-1-2.1-2.3V-58.9z"/>
	<path id="XMLID_1205_" class="st0" d="M90.9-34.9c-1.1-0.7-1.8-2.1-1.1-3.7l9.8-21.4c0.9-2,3.4-2.1,4.2,0l9.6,21.4
		c1.4,3-2.7,5.3-3.9,2.4l-1.5-3.4H95.3l-1.5,3.4C93.3-34.9,92.1-34.6,90.9-34.9z M105.5-44.5l-3.8-9.4l-4.2,9.4H105.5z"/>
	<path id="XMLID_1208_" class="st0" d="M116-55.5c0.8-7.4,10.7-8.7,15.4-4.7c2.3,2.1-0.1,5.4-2.2,3.7c-2.5-1.8-8.2-2.6-8.9,1.3
		c-0.9,6.2,13.9,2.7,13.6,12.8c-0.2,9.7-12.7,9.9-17.4,5.6c-1.1-1-1.1-2.7-0.5-3.7c0.9-1,1.9-1.3,3-0.3c2.8,2.1,10,3.7,10.5-1.7
		C129.1-48.1,115-44.7,116-55.5z"/>
	<path id="XMLID_1210_" class="st0" d="M137.5-55.5c0.8-7.4,10.7-8.7,15.4-4.7c2.3,2.1-0.1,5.4-2.2,3.7c-2.5-1.8-8.2-2.6-8.9,1.3
		c-0.9,6.2,13.9,2.7,13.6,12.8c-0.2,9.7-12.7,9.9-17.4,5.6c-1.1-1-1.1-2.7-0.5-3.7c0.9-1,1.9-1.3,3-0.3c2.8,2.1,10,3.7,10.5-1.7
		C150.6-48.1,136.4-44.7,137.5-55.5z"/>
	<path id="XMLID_1212_" class="st0" d="M159.3-58.9c0-1.3,1-2.3,2.1-2.3c1.1,0,2,1.1,2,2.3v19.1h9.2c3.3,0,3.4,5,0,5h-11.3
		c-1.2,0-2.1-1-2.1-2.3V-58.9z"/>
	<path id="XMLID_1214_" class="st0" d="M179-58.9c0-3.1,4.5-3.2,4.5,0v21.7c0,3.2-4.5,3.2-4.5,0V-58.9z"/>
	<path id="XMLID_1216_" class="st0" d="M200.5-34.5c-6.3,0.3-12.8-4.4-12.8-13.7c0-9.4,6.5-14,12.8-14c5.9,0.3,12.2,5,12.2,14
		S206.4-34.5,200.5-34.5z M200.1-57.2c-3.8,0-8,3-8,9c0,6,4.1,9,8,9c3.9,0,8.1-3,8.1-9C208.2-54.2,204-57.2,200.1-57.2z"/>
	<path id="XMLID_1219_" class="st0" d="M216.8-58.5c0-1.4,0.3-2.7,2-2.7c1.2,0,1.5,0.3,2.4,1.3l11.3,15.8v-14.8c0-1.3,1-2.6,2.1-2.6
		c1.2,0,2.4,1.4,2.4,2.6v21.4c0,1.7-0.9,2.3-1.8,2.6c-1.2,0-1.8-0.3-2.8-1.3l-11.3-16v14.7c0,1.7-0.9,2.6-2.1,2.6s-2.3-1-2.3-2.6
		V-58.5z"/>
</g>
<g id="XMLID_235_">
	<path id="XMLID_254_" class="st0" d="M0,13.7C0,6.3,4.1,0,11.9,0c3,0,5.3,1,7.8,3.4c0.9,1,1,2.6,0.1,3.7C18.9,8,17.5,7.9,16.7,7
		c-1.4-1.6-2.8-2.1-4.8-2.1c-5.2,0-7.8,4.2-7.8,8.8c0,4.7,2.5,9.1,7.8,9.1c1.9,0,3.7-0.9,5.3-2.4c1.1-0.9,2.5-0.5,3.1,0.5
		c0.5,0.8,0.8,2.2-0.4,3.6c-2.4,2.5-5.2,3-8.1,3C3.7,27.3,0,21,0,13.7z"/>
</g>
</svg>
