<!-- Generator: Adobe Illustrator 19.0.0, SVG Export Plug-In  -->
<svg version="1.1"
	 xmlns="http://www.w3.org/2000/svg" xmlns:xlink="http://www.w3.org/1999/xlink" xmlns:a="http://ns.adobe.com/AdobeSVGViewerExtensions/3.0/"
	 x="0px" y="0px" width="82.6px" height="84.6px" viewBox="0 0 82.6 84.6" style="enable-background:new 0 0 82.6 84.6;"
	 xml:space="preserve">
<style type="text/css">
	.st0{fill:#48A69C;}
	.st1{fill:#E9B25B;}
	.st2{fill:#ECBF7B;}
	.st3{fill:#F3DF7C;}
	.st4{fill:#F5E698;}
	.st5{fill:#464449;}
	.st6{fill:#47454A;}
</style>
<defs>
</defs>
<g>
	<g id="XMLID_7_">
		<circle id="XMLID_14_" class="st0" cx="41.3" cy="41.3" r="41.3"/>
		<g id="XMLID_8_">
			<g id="XMLID_9_">
				<g id="XMLID_10_">
					<path id="XMLID_12_" class="st1" d="M68.9,37.7c0,0.9,0,1.8,0,2.6c-0.2,0.7-0.3,1.4-0.5,2.1C66.5,50.2,62.6,57,57,62.7
						c-2.1,2.2-4.4,4.1-6.9,5.8c-2.7,1.9-5.6,3.6-8.7,4.9c-0.1,0-0.1-0.1-0.2-0.1c0-4.3,0-8.7,0-13h0.1c2.8,0,5.6,0,8.4,0
						c1,0,1.8-0.4,2.2-1.4c0.3-0.6,0.5-1.3,0.7-2c1.3-3.4,2.5-6.9,3.8-10.3c1-2.7,1.4-5.5,0.9-8.3c-0.6-3.6-2.1-6.8-4.9-9.3
						c-1.6-1.4-3.6-2.1-5.7-2.2c-1.8-0.1-3.6,0-5.5,0h-0.1c0-4.2,0-8.4,0-12.6c1.5-0.2,3-0.1,4.5,0c2.5,0.4,5,1.1,7.3,2
						c2.9,1.2,5.8,2.4,8.3,4.3c0,0.1,0,0.2,0.2,0.2l0,0c0,0.1,0,0.2,0.1,0.2c0.9,1,1.6,2.2,2.4,3.3c0.1,0.1,0.1,0.2,0.2,0.3
						c0,0.1,0.1,0.3,0.2,0.3c0,0.1,0.1,0.2,0.1,0.3c1.8,3.1,3.1,6.4,3.9,9.9C68.6,36.1,68.6,36.9,68.9,37.7z"/>
					<path id="XMLID_11_" class="st2" d="M41.5,73.3c-3.3-1.6-6.5-3.5-9.4-5.8C31,66.7,30,65.8,29,65c-0.1-0.1-0.2-0.1-0.3-0.2l0,0
						c-0.2-0.4-0.6-0.6-0.9-0.9c-1.4-1.5-2.9-2.9-4.2-4.5c-0.3-0.4-0.5-0.9-1-1.1l0,0c-0.2-0.5-0.5-0.9-0.9-1.2l0,0
						c-0.1-0.3-0.2-0.5-0.4-0.7c0-0.1-0.1-0.3-0.2-0.3c-0.1-0.3-0.2-0.5-0.5-0.7v-0.1c-0.1-0.1-0.1-0.2-0.2-0.2
						c-0.9-1.5-1.8-2.9-2.5-4.4c-1.5-2.9-2.7-5.9-3.4-9.1c0-0.2-0.1-0.3-0.1-0.5c-0.5-2.3,0-4.6,0.6-6.8c1.2-5,3.5-9.4,6.7-13.4
						c0.9-1.1,2.1-1.7,3.3-2.3c3.7-1.9,7.5-3.5,11.6-4.2c1.5-0.3,3.1-0.3,4.6-0.3c0.1,0,0.2,0.1,0.4,0.1c0,4.2,0,8.4,0,12.6
						c-0.2,0-0.4,0-0.6,0c-1.8,0.1-3.6-0.1-5.3,0.1c-2.1,0.3-3.9,1.2-5.4,2.6c-1.8,1.7-3,3.8-4,6c-1,2.4-1.2,4.8-0.8,7.4
						c0.3,1.5,0.9,2.9,1.4,4.4c1.4,3.8,2.8,7.5,4.2,11.3c0.4,1,1.1,1.6,2.2,1.6c2.7,0,5.5,0,8.2,0C41.5,64.6,41.5,69,41.5,73.3z"/>
					<path class="st3" d="M57.6,35.4c-1-2.3-2.3-4.5-4.3-6.3c-1.6-1.6-3.5-2.4-5.7-2.7c-1.1-0.2-2.2-0.2-3.3-0.2h-3v25.7
						c0,1.8,0,3.5,0,5.3c0,1.4,0,2.8,0,4.1h0.1c2.9,0,5.9,0,8.7,0c1.2,0,1.9-0.5,2.3-1.7c1.5-4,3-7.9,4.5-11.9
						c0.5-1.5,1.2-2.9,1.5-4.6C59,40.5,58.7,37.9,57.6,35.4z"/>
					<path class="st4" d="M38.5,26.2c-1.1,0-2.2,0-3.2,0.2c-2.2,0.3-4.1,1.2-5.7,2.7c-1.9,1.8-3.3,4-4.2,6.3c-1,2.5-1.4,5.1-0.8,7.8
						c0.3,1.7,0.9,3.1,1.5,4.6c1.5,4,2.9,7.9,4.4,11.9c0.4,1.2,1.2,1.7,2.3,1.7c2.8,0,5.8,0,8.6,0h0.1c0-1.4,0-2.8,0-4.1
						c0-1.8,0-3.5,0-5.3V26.2H38.5z"/>
				</g>
			</g>
		</g>
	</g>
	<path id="XMLID_6_" class="st5" d="M50.4,40.4c-1.3,0-2.3-1.4-2-2.8c0.3-1.3,1.4-2,2.5-1.7c1.2,0.3,1.8,1.7,1.4,3
		C52,39.8,51.3,40.4,50.4,40.4z"/>
	<path id="XMLID_5_" class="st5" d="M34.6,38.1c0,1.2-0.9,2.3-2,2.3s-2-1-2-2.3s0.9-2.3,2-2.3S34.6,36.8,34.6,38.1z"/>
	<path id="XMLID_4_" class="st6" d="M41.4,51.4c-0.2-0.1-0.2,0-0.3,0.1c-2.5,2.4-5.5,2.8-8.7,1.7c-1.1-0.4-2.1-1-3.1-1.7
		c-0.5-0.4-0.7-0.8-0.4-1.2c0.3-0.4,0.7-0.4,1.2,0c1.8,1.3,3.7,2.1,5.9,2c1.8-0.1,3.3-1,4.5-2.3c0.2-0.2,0.1-0.5,0.1-0.8
		c0.1-0.9,0-1.7-1-2.2c-0.6-0.3-1.1-1-1.2-1.8c-0.1-0.8,0.2-1.3,0.9-1.5c0.6-0.2,1.3-0.2,2-0.2c0.5,0,1.1,0,1.6,0.1
		c1.2,0.2,1.6,1.1,1.2,2.2c-0.3,0.8-0.9,1.3-1.6,1.7c-0.3,0.2-0.5,0.4-0.4,0.8c0,0.1,0,0.2,0,0.3c-0.2,1.1,0.4,1.8,1.2,2.5
		c2.2,1.6,4.5,1.6,6.9,0.5c0.8-0.4,1.6-0.8,2.3-1.3c0.5-0.4,0.9-0.3,1.2,0c0.3,0.4,0.2,0.8-0.3,1.1c-2,1.5-4.3,2.4-6.8,2.3
		c-1.9-0.1-3.4-0.8-4.8-2.1C41.7,51.6,41.5,51.5,41.4,51.4z"/>
</g>
</svg>