<?xml version="1.0" encoding="utf-8"?>
<!-- Generator: Adobe Illustrator 19.0.0, SVG Export Plug-In . SVG Version: 6.00 Build 0)  -->
<svg version="1.1" id="Layer_1" xmlns="http://www.w3.org/2000/svg" xmlns:xlink="http://www.w3.org/1999/xlink" x="0px" y="0px"
	 viewBox="-654 375.5 90.7 90.4" style="enable-background:new -654 375.5 90.7 90.4;" xml:space="preserve">
<style type="text/css">
	.st0{display:none;}
	.st1{display:inline;fill:#F2F2F2;}
	.st2{display:inline;}
	.st3{opacity:0.25;}
	.st4{fill:#F2F200;}
	.st5{fill:#FF0000;}
	.st6{fill:#48A69C;}
	.st7{fill:#E9B25B;}
	.st8{fill:#ECBF7B;}
	.st9{fill:#F3DF7C;}
	.st10{fill:#464449;}
	.st11{fill:#F5E698;}
	.st12{fill:#47454A;}
</style>
<g id="Layer_1_1_" class="st0">
	<rect id="XMLID_55_" x="1747.6" y="-5901.9" class="st1" width="1250.4" height="1145.9"/>
	<g id="Grid-1170" class="st2">
		<g id="Container" class="st3">
			<g id="XMLID_243_">
				<rect id="XMLID_244_" x="1802.8" y="-6671.3" class="st4" width="1129.1" height="5998.3"/>
			</g>
		</g>
		<g id="Columns" class="st3">
			<g id="XMLID_326_">
				<path id="XMLID_327_" class="st5" d="M1831.8-673h62.7v-5998.3h-62.7V-673z M1923.5-673h62.7v-5998.3h-62.7V-673z M2015.1-673
					h62.7v-5998.3h-62.7V-673z M2106.8-673h62.7v-5998.3h-62.7V-673z M2198.5-673h62.7v-5998.3h-62.7V-673z M2290.2-673h62.7
					v-5998.3h-62.7V-673z M2381.9-673h62.7v-5998.3h-62.7V-673z M2473.5-673h62.7v-5998.3h-62.7V-673z M2565.2-673h62.7v-5998.3
					h-62.7V-673z M2656.9-673h62.7v-5998.3h-62.7V-673z M2748.6-673h62.7v-5998.3h-62.7V-673z M2840.2-6671.3V-673h62.7v-5998.3
					H2840.2z"/>
			</g>
		</g>
	</g>
</g>
<g id="XMLID_1084_">
	<circle id="XMLID_1951_" class="st6" cx="-608.7" cy="420.7" r="41.3"/>
	<g id="XMLID_1085_">
		
			<image style="overflow:visible;opacity:0.25;enable-background:new    ;" width="283" height="300" id="XMLID_2480_" xlink:href="9EC652C8E57570E3.png"  transform="matrix(0.2375 0 0 0.2384 -637.2077 392.5231)">
		</image>
		<g id="XMLID_2365_">
			<g id="XMLID_2454_">
				<path id="XMLID_2466_" class="st7" d="M-581.1,417.1c0,0.9,0,1.8,0,2.6c-0.2,0.7-0.3,1.4-0.5,2.1c-1.9,7.8-5.8,14.6-11.4,20.3
					c-2.1,2.2-4.4,4.1-6.9,5.8c-2.7,1.9-5.6,3.6-8.7,4.9c-0.1,0-0.1-0.1-0.2-0.1c0-4.3,0-8.7,0-13h0.1c2.8,0,5.6,0,8.4,0
					c1,0,1.8-0.4,2.2-1.4c0.3-0.6,0.5-1.3,0.7-2c1.3-3.4,2.5-6.9,3.8-10.3c1-2.7,1.4-5.5,0.9-8.3c-0.6-3.6-2.1-6.8-4.9-9.3
					c-1.6-1.4-3.6-2.1-5.7-2.2c-1.8-0.1-3.6,0-5.5,0h-0.1c0-4.2,0-8.4,0-12.6c1.5-0.2,3-0.1,4.5,0c2.5,0.4,5,1.1,7.3,2
					c2.9,1.2,5.8,2.4,8.3,4.3c0,0.1,0,0.2,0.2,0.2l0,0c0,0.1,0,0.2,0.1,0.2c0.9,1,1.6,2.2,2.4,3.3c0.1,0.1,0.1,0.2,0.2,0.3
					c0,0.1,0.1,0.3,0.2,0.3c0,0.1,0.1,0.2,0.1,0.3c1.8,3.1,3.1,6.4,3.9,9.9C-581.4,415.5-581.4,416.3-581.1,417.1z"/>
				<path id="XMLID_2464_" class="st8" d="M-608.9,452.7c-3.3-1.6-6.5-3.5-9.4-5.8c-1.1-0.8-2.1-1.7-3.1-2.5
					c-0.1-0.1-0.2-0.1-0.3-0.2l0,0c-0.2-0.4-0.6-0.6-0.9-0.9c-1.4-1.5-2.9-2.9-4.2-4.5c-0.3-0.4-0.5-0.9-1-1.1l0,0
					c-0.2-0.5-0.5-0.9-0.9-1.2l0,0c-0.1-0.3-0.2-0.5-0.4-0.7c0-0.1-0.1-0.3-0.2-0.3c-0.1-0.3-0.2-0.5-0.5-0.7v-0.1
					c-0.1-0.1-0.1-0.2-0.2-0.2c-0.9-1.5-1.8-2.9-2.5-4.4c-1.5-2.9-2.7-5.9-3.4-9.1c0-0.2-0.1-0.3-0.1-0.5c-0.5-2.3,0-4.6,0.6-6.8
					c1.2-5,3.5-9.4,6.7-13.4c0.9-1.1,2.1-1.7,3.3-2.3c3.7-1.9,7.5-3.5,11.6-4.2c1.5-0.3,3.1-0.3,4.6-0.3c0.1,0,0.2,0.1,0.4,0.1
					c0,4.2,0,8.4,0,12.6c-0.2,0-0.4,0-0.6,0c-1.8,0.1-3.6-0.1-5.3,0.1c-2.1,0.3-3.9,1.2-5.4,2.6c-1.8,1.7-3,3.8-4,6
					c-1,2.4-1.2,4.8-0.8,7.4c0.3,1.5,0.9,2.9,1.4,4.4c1.4,3.8,2.8,7.5,4.2,11.3c0.4,1,1.1,1.6,2.2,1.6c2.7,0,5.5,0,8.2,0
					C-608.9,444-608.9,448.4-608.9,452.7z"/>
				<path id="XMLID_2461_" class="st9" d="M-608.8,406.3c1.8,0,3.6-0.1,5.5,0c2.1,0.1,4,0.9,5.7,2.2c2.9,2.4,4.3,5.7,4.9,9.3
					c0.5,2.8,0.1,5.6-0.9,8.3c-1.3,3.4-2.5,6.8-3.8,10.3c-0.2,0.7-0.5,1.3-0.7,2c-0.4,1-1.2,1.4-2.2,1.4c-2.8,0-5.6,0-8.4,0
					c0-3,0-6,0-9c0.1,0.1,0.3,0.2,0.4,0.4c1.4,1.2,2.9,2,4.8,2.1c2.6,0.1,4.8-0.9,6.8-2.3c0.5-0.3,0.5-0.8,0.3-1.1
					c-0.3-0.4-0.7-0.4-1.2,0c-0.7,0.5-1.5,1-2.3,1.3c-2.4,1-4.7,1.1-6.9-0.5c-0.8-0.6-1.5-1.3-1.2-2.5c0-0.1,0-0.2,0-0.3
					c-0.1-0.4,0.1-0.6,0.4-0.8c0.7-0.4,1.3-0.9,1.6-1.7c0.5-1.1,0-1.9-1.2-2.2c-0.5-0.1-1.1-0.1-1.6-0.1
					C-608.8,417.4-608.8,411.8-608.8,406.3z M-599.8,419.7c0.9,0,1.6-0.6,1.9-1.5c0.4-1.3-0.2-2.7-1.4-3c-1.1-0.3-2.2,0.4-2.5,1.7
					C-602.1,418.3-601.1,419.7-599.8,419.7z"/>
				<path id="XMLID_2460_" class="st10" d="M-599.8,419.7c-1.3,0-2.3-1.4-2-2.8c0.3-1.3,1.4-2,2.5-1.7c1.2,0.3,1.8,1.7,1.4,3
					C-598.2,419.1-598.9,419.7-599.8,419.7z"/>
				<path id="XMLID_2459_" class="st10" d="M-615.6,417.4c0,1.2-0.9,2.3-2,2.3c-1.1,0-2-1-2-2.3c0-1.3,0.9-2.3,2-2.3
					C-616.5,415.1-615.6,416.1-615.6,417.4z"/>
				<path id="XMLID_2456_" class="st11" d="M-608.8,406.3c0,5.5,0,11,0,16.5c-0.7,0-1.3,0-2,0.2c-0.7,0.3-1,0.8-0.9,1.5
					c0.1,0.8,0.5,1.5,1.2,1.8c1,0.5,1.1,1.2,1,2.2c0,0.3,0.1,0.5-0.1,0.8c-1.2,1.3-2.6,2.2-4.5,2.3c-2.2,0.1-4.1-0.8-5.9-2
					c-0.5-0.4-0.9-0.4-1.2,0c-0.3,0.4-0.2,0.8,0.4,1.2c1,0.7,2,1.3,3.1,1.7c3.2,1.2,6.2,0.8,8.7-1.7c0.1-0.1,0.2-0.2,0.3-0.1
					c0,3,0,6,0,9h-0.1c-2.7,0-5.5,0-8.2,0c-1.1,0-1.8-0.5-2.2-1.6c-1.4-3.8-2.8-7.5-4.2-11.3c-0.5-1.4-1.1-2.8-1.4-4.4
					c-0.5-2.5-0.2-5,0.8-7.4c0.9-2.2,2.2-4.3,4-6c1.5-1.5,3.3-2.3,5.4-2.6c1.8-0.3,3.6-0.1,5.3-0.1
					C-609.1,406.3-608.9,406.3-608.8,406.3C-608.8,406.3-608.8,406.3-608.8,406.3z M-615.6,417.4c0-1.3-0.9-2.3-2-2.3
					c-1.1,0-2,1-2,2.3c0,1.3,0.9,2.3,2,2.3C-616.5,419.7-615.6,418.7-615.6,417.4z"/>
				<path id="XMLID_2455_" class="st12" d="M-608.8,430.7c-0.2-0.1-0.2,0-0.3,0.1c-2.5,2.4-5.5,2.8-8.7,1.7c-1.1-0.4-2.1-1-3.1-1.7
					c-0.5-0.4-0.7-0.8-0.4-1.2c0.3-0.4,0.7-0.4,1.2,0c1.8,1.3,3.7,2.1,5.9,2c1.8-0.1,3.3-1,4.5-2.3c0.2-0.2,0.1-0.5,0.1-0.8
					c0.1-0.9,0-1.7-1-2.2c-0.6-0.3-1.1-1-1.2-1.8c-0.1-0.8,0.2-1.3,0.9-1.5c0.6-0.2,1.3-0.2,2-0.2c0.5,0,1.1,0,1.6,0.1
					c1.2,0.2,1.6,1.1,1.2,2.2c-0.3,0.8-0.9,1.3-1.6,1.7c-0.3,0.2-0.5,0.4-0.4,0.8c0,0.1,0,0.2,0,0.3c-0.2,1.1,0.4,1.8,1.2,2.5
					c2.2,1.6,4.5,1.6,6.9,0.5c0.8-0.4,1.6-0.8,2.3-1.3c0.5-0.4,0.9-0.3,1.2,0c0.3,0.4,0.2,0.8-0.3,1.1c-2,1.5-4.3,2.4-6.8,2.3
					c-1.9-0.1-3.4-0.8-4.8-2.1C-608.5,430.9-608.7,430.8-608.8,430.7z"/>
			</g>
		</g>
	</g>
</g>
</svg>
