<?xml version="1.0" encoding="utf-8"?>
<!-- Generator: Adobe Illustrator 19.0.0, SVG Export Plug-In . SVG Version: 6.00 Build 0)  -->
<svg version="1.1" id="Layer_1" xmlns="http://www.w3.org/2000/svg" xmlns:xlink="http://www.w3.org/1999/xlink" x="0px" y="0px"
	 viewBox="0 0 135.6 135.6" style="enable-background:new 0 0 135.6 135.6;" xml:space="preserve">
<style type="text/css">
	.st0{fill:none;stroke:#27B5AF;stroke-miterlimit:10;}
	.st1{fill:#FF5A5F;}
	.st2{fill:none;stroke:#FFFFFF;stroke-width:2;stroke-miterlimit:10;}
</style>
<g id="XMLID_3930_">
	<g id="XMLID_32_">
		<path id="XMLID_33_" class="st0" d="M1286.1,999.3c-3.9,0-7.1,2.8-7.1,6.3c0,1.2,0.4,2.4,1.1,3.4c-0.1,1.5-0.5,2.7-1.1,3.2
			c-0.1,0.1-0.1,0.2,0,0.3c0,0.1,0.1,0.1,0.2,0.1c0,0,0,0,0,0c0.1,0,2.3-0.3,3.9-1.2c0.9,0.4,1.9,0.5,2.9,0.5c3.9,0,7.1-2.8,7.1-6.3
			S1290,999.3,1286.1,999.3z M1286.1,1011.4c-0.8,0-1.6-0.1-2.4-0.4c1-0.6,1-0.6,1-0.8c0-0.1,0-0.2-0.1-0.2c-0.1-0.1-0.2,0-0.3,0.1
			c-0.1,0.1-0.7,0.5-1.2,0.8l0,0c-1.1,0.6-2.5,1-3.3,1.1c0.5-0.9,0.7-2.1,0.8-3.1c0-0.1,0-0.1,0-0.2c-0.7-1-1.1-2.1-1.1-3.2
			c0-3.2,3-5.8,6.6-5.8s6.6,2.6,6.6,5.8C1292.7,1008.8,1289.7,1011.4,1286.1,1011.4z"/>
	</g>
</g>
<g id="XMLID_3879_">
	<g id="XMLID_50_">
		<path id="XMLID_52_" class="st1" d="M1338,1008.3h-0.9v-4.6c0-3-2.4-5.4-5.4-5.4h-0.4c-3,0-5.4,2.4-5.4,5.4v4.6h-0.9
			c-0.2,0-0.4,0.2-0.4,0.4v3.9c0,0.2,0.2,0.4,0.4,0.4h13.1c0.2,0,0.4-0.2,0.4-0.4v-3.9C1338.4,1008.5,1338.2,1008.3,1338,1008.3z
			 M1326.7,1003.7c0-2.5,2.1-4.6,4.6-4.6h0.4c2.5,0,4.6,2.1,4.6,4.6v4.6h-9.6V1003.7z M1337.6,1012.2h-12.2v-3h0.9h10.4h0.9V1012.2z
			"/>
		<path id="XMLID_51_" class="st1" d="M1331.5,1000.3c-1.9,0-3.5,1.6-3.5,3.5c0,0.2,0.2,0.4,0.4,0.4c0.2,0,0.4-0.2,0.4-0.4
			c0-1.4,1.2-2.6,2.6-2.6c0.2,0,0.4-0.2,0.4-0.4S1331.7,1000.3,1331.5,1000.3z"/>
	</g>
</g>
<g id="XMLID_846_">
	<circle id="XMLID_885_" class="st2" cx="67.8" cy="67.8" r="66.8"/>
	<g id="XMLID_847_">
		<rect id="XMLID_850_" x="28.9" y="46.3" class="st2" width="79.7" height="50"/>
		<line id="XMLID_849_" class="st2" x1="28.9" y1="46.3" x2="69.2" y2="71.1"/>
		<line id="XMLID_848_" class="st2" x1="68.2" y1="71.1" x2="108.5" y2="46.3"/>
	</g>
</g>
</svg>
