<!-- Generator: Adobe Illustrator 19.0.0, SVG Export Plug-In  -->
<svg version="1.1"
	 xmlns="http://www.w3.org/2000/svg" xmlns:xlink="http://www.w3.org/1999/xlink" xmlns:a="http://ns.adobe.com/AdobeSVGViewerExtensions/3.0/"
	 x="0px" y="0px" width="47px" height="47px" viewBox="0 0 47 47" style="enable-background:new 0 0 47 47;" xml:space="preserve">
<style type="text/css">
	.st0{fill:none;stroke:#FFFFFF;stroke-width:2;stroke-miterlimit:10;}
	.st1{fill:#FFFFFF;stroke:#FFFFFF;stroke-miterlimit:10;}
</style>
<defs>
</defs>
<g id="XMLID_1_">
	<circle id="XMLID_3_" class="st0" cx="23.5" cy="23.5" r="22.5"/>
	<path id="XMLID_2_" class="st1" d="M31.1,31.2c0.3-0.3,0.8-0.3,1.1,0c0.3,0.3,0.3,0.8,0,1.1c-1.1,1.1-2.4,2-4,2.6l0,0
		c-1.4,0.6-3,0.9-4.7,0.9c-1.6,0-3.2-0.3-4.7-0.9c-1.5-0.6-2.8-1.5-4-2.6c-1.1-1.1-2-2.4-2.6-4c-0.6-1.4-0.9-3-0.9-4.7
		s0.3-3.2,0.9-4.7c0.6-1.5,1.5-2.8,2.6-4s2.4-2,4-2.6c1.4-0.6,3-0.9,4.7-0.9c1.6,0,3.2,0.3,4.7,0.9c1.5,0.6,2.8,1.5,4,2.6
		c0.3,0.3,0.3,0.8,0,1.1c-0.3,0.3-0.8,0.3-1.1,0c-1-1-2.1-1.8-3.4-2.3c-1.2-0.5-2.6-0.8-4.1-0.8c-1.4,0-2.8,0.3-4.1,0.8
		c-1.3,0.5-2.4,1.3-3.4,2.3s-1.8,2.1-2.3,3.4c-0.5,1.2-0.8,2.6-0.8,4.1s0.3,2.8,0.8,4.1c0.5,1.3,1.3,2.4,2.3,3.4
		c1,1,2.1,1.8,3.4,2.3c1.2,0.5,2.6,0.8,4.1,0.8c1.4,0,2.8-0.3,4.1-0.8l0,0l0,0C29,32.9,30.2,32.1,31.1,31.2z"/>
</g>
</svg>