<!-- Generator: Adobe Illustrator 19.0.0, SVG Export Plug-In  -->
<svg version="1.1"
	 xmlns="http://www.w3.org/2000/svg" xmlns:xlink="http://www.w3.org/1999/xlink" xmlns:a="http://ns.adobe.com/AdobeSVGViewerExtensions/3.0/"
	 x="0px" y="0px" width="50.4px" height="46px" viewBox="0 0 50.4 46" style="enable-background:new 0 0 50.4 46;"
	 xml:space="preserve">
<style type="text/css">
	.st0{fill:#FFFFFF;stroke:#FFFFFF;stroke-miterlimit:10;}
</style>
<defs>
</defs>
<g id="XMLID_1_">
	<g id="XMLID_2_">
		<path id="XMLID_3_" class="st0" d="M25.5,0.5C11.9,0.5,0.8,10,0.8,21.8c0,4.1,1.4,8.1,3.8,11.5c-0.3,5.1-1.7,9.1-3.8,10.8
			c-0.3,0.3-0.3,0.7,0,1c0,0.3,0.3,0.3,0.7,0.3l0,0c0.3,0,8-1,13.6-4.1c3.1,1.4,6.6,1.7,10.1,1.7c13.6,0,24.7-9.5,24.7-21.3
			S39.1,0.5,25.5,0.5z M25.5,41.4c-2.8,0-5.6-0.3-8.4-1.4c3.5-2,3.5-2,3.5-2.7c0-0.3,0-0.7-0.3-0.7c-0.3-0.3-0.7,0-1,0.3
			c-0.3,0.3-2.4,1.7-4.2,2.7l0,0c-3.8,2-8.7,3.4-11.5,3.7c1.7-3,2.4-7.1,2.8-10.5c0-0.3,0-0.3,0-0.7c-2.8-2.7-3.8-6.8-3.8-10.5
			c0-10.8,10.1-19.6,23-19.6s23,8.8,23,19.6S38,41.4,25.5,41.4z"/>
	</g>
</g>
</svg>