<!-- Generator: Adobe Illustrator 19.0.0, SVG Export Plug-In  -->
<svg version="1.1"
	 xmlns="http://www.w3.org/2000/svg" xmlns:xlink="http://www.w3.org/1999/xlink" xmlns:a="http://ns.adobe.com/AdobeSVGViewerExtensions/3.0/"
	 x="0px" y="0px" width="43.8px" height="45px" viewBox="0 0 43.8 45" style="enable-background:new 0 0 43.8 45;"
	 xml:space="preserve">
<style type="text/css">
	.st0{fill:#FFFFFF;}
</style>
<defs>
</defs>
<g>
	<g>
		<g>
			<path class="st0" d="M34.3,6.9c0.6,0,1.1-0.5,1.1-1.1V2.4c0-1.3-1.1-2.4-2.4-2.4h-23C9.8,0,9.5,0.1,9.3,0.3l-9,9
				C0.1,9.5,0,9.8,0,10.1v32.5C0,43.9,1.1,45,2.4,45h30.7c1.3,0,2.4-1.1,2.4-2.4V26c0-0.6-0.5-1.1-1.1-1.1c-0.6,0-1.1,0.5-1.1,1.1
				v16.6c0,0.1-0.1,0.2-0.2,0.2H2.4c-0.1,0-0.2-0.1-0.2-0.2V11.2h6.6c1.3,0,2.4-1.1,2.4-2.4V2.2h21.9c0.1,0,0.2,0.1,0.2,0.2v3.4
				C33.3,6.4,33.8,6.9,34.3,6.9z M9,8.8C9,8.9,8.9,9,8.8,9H3.7L9,3.7V8.8z"/>
		</g>
	</g>
	<g>
		<g>
			<path class="st0" d="M42.7,8.8l-1.3-1.3c-1.4-1.4-3.8-1.4-5.2,0L26.1,17.7H8.5c-0.6,0-1.1,0.5-1.1,1.1s0.5,1.1,1.1,1.1h15.4
				l-6.5,6.5H8.5c-0.6,0-1.1,0.5-1.1,1.1c0,0.6,0.5,1.1,1.1,1.1h6.7l0,0c-0.1,0.1-0.2,0.3-0.3,0.5l-1.7,6H8.5
				c-0.6,0-1.1,0.5-1.1,1.1s0.5,1.1,1.1,1.1h5.6c0,0,0.2,0,0.3,0c0,0,6.9-1.9,6.9-1.9c0.2-0.1,0.3-0.1,0.5-0.3l21-21.1
				C44.1,12.6,44.1,10.3,42.7,8.8z M15.6,34.6l0.9-3.2l2.3,2.3L15.6,34.6z M20.9,32.8l-3.4-3.4L34.9,12l3.4,3.4L20.9,32.8z
				 M41.2,12.5l-1.4,1.4l-3.4-3.4l1.4-1.4c0.6-0.6,1.5-0.6,2.1,0l1.3,1.3C41.8,10.9,41.8,11.9,41.2,12.5z"/>
		</g>
	</g>
</g>
</svg>