<!-- Generator: Adobe Illustrator 19.0.0, SVG Export Plug-In  -->
<svg version="1.1"
	 xmlns="http://www.w3.org/2000/svg" xmlns:xlink="http://www.w3.org/1999/xlink" xmlns:a="http://ns.adobe.com/AdobeSVGViewerExtensions/3.0/"
	 x="0px" y="0px" width="48.8px" height="45px" viewBox="0 0 48.8 45" style="enable-background:new 0 0 48.8 45;"
	 xml:space="preserve">
<style type="text/css">
	.st0{fill:#FFFFFF;}
</style>
<defs>
</defs>
<g>
	<path class="st0" d="M48.1,43.6h-1.6v-20h1.6c0.3,0,0.5-0.1,0.6-0.4c0.1-0.2,0.1-0.5,0-0.7l-5.4-8.4c-0.1-0.2-0.4-0.3-0.6-0.3H28.5
		l-3.4-3.4V7.5h6.9c0.3,0,0.5-0.1,0.6-0.4c0.1-0.2,0.1-0.5,0-0.7l-1.3-1.9l1.3-1.9c0.1-0.2,0.2-0.5,0-0.7c-0.1-0.2-0.4-0.4-0.6-0.4
		h-6.9V0.7c0-0.4-0.3-0.7-0.7-0.7s-0.7,0.3-0.7,0.7v9.6l-3.4,3.4H6.1c-0.2,0-0.5,0.1-0.6,0.3l-5.4,8.4C0,22.7,0,23,0.1,23.2
		c0.1,0.2,0.4,0.4,0.6,0.4h1.6v20H0.7c-0.4,0-0.7,0.3-0.7,0.7S0.3,45,0.7,45h47.4c0.4,0,0.7-0.3,0.7-0.7S48.5,43.6,48.1,43.6z
		 M42.4,15.2l4.4,7h-9.9l-7-7H42.4z M30.7,3l-0.8,1.2c-0.2,0.2-0.2,0.6,0,0.8l0.8,1.2h-5.6V3H30.7z M6.5,15.2h12.4l-7,7H2L6.5,15.2z
		 M3.7,23.6h8.5c0,0,0,0,0.1,0c0,0,0,0,0,0s0,0,0,0c0,0,0,0,0,0c0,0,0,0,0,0c0,0,0,0,0,0s0,0,0,0s0,0,0,0c0,0,0,0,0,0s0,0,0,0
		s0,0,0,0s0,0,0,0c0,0,0,0,0,0c0,0,0,0,0.1,0l11.7-11.7l11.7,11.7c0,0,0,0,0.1,0c0,0,0,0,0,0c0,0,0,0,0,0c0,0,0,0,0,0c0,0,0,0,0,0
		c0,0,0,0,0,0c0,0,0,0,0,0c0,0,0,0,0,0s0,0,0,0c0,0,0,0,0,0c0,0,0,0,0,0c0,0,0,0,0,0c0,0,0,0,0,0c0,0,0,0,0.1,0h8.5v20H29.7v-10
		c0-1.2-1-2.2-2.2-2.2h-6.1c-1.2,0-2.2,1-2.2,2.2v10H3.7V23.6z M28.3,34.4h-7.7v-0.8c0-0.4,0.4-0.8,0.8-0.8h6.1
		c0.4,0,0.8,0.4,0.8,0.8V34.4z M20.5,35.8h3.2v7.7h-3.2V35.8z M25.1,35.8h3.2v7.7h-3.2V35.8z"/>
	<path class="st0" d="M24.4,28.9c2.9,0,5.3-2.4,5.3-5.3s-2.4-5.3-5.3-5.3s-5.3,2.4-5.3,5.3S21.5,28.9,24.4,28.9z M24.4,19.8
		c2.1,0,3.9,1.7,3.9,3.9c0,2.1-1.7,3.9-3.9,3.9s-3.9-1.7-3.9-3.9S22.3,19.8,24.4,19.8z"/>
	<path class="st0" d="M24.4,24.4c0.4,0,0.7-0.3,0.7-0.7v-2.3c0-0.4-0.3-0.7-0.7-0.7s-0.7,0.3-0.7,0.7v1.6h-1.6
		c-0.4,0-0.7,0.3-0.7,0.7c0,0.4,0.3,0.7,0.7,0.7H24.4z"/>
	<path class="st0" d="M16.8,35.2h-3.8c-0.4,0-0.7,0.3-0.7,0.7v4.6c0,0.4,0.3,0.7,0.7,0.7h3.8c0.4,0,0.7-0.3,0.7-0.7v-4.6
		C17.5,35.5,17.2,35.2,16.8,35.2z M16.1,36.6v0.9h-2.4v-0.9H16.1z M13.7,39.7v-0.9h2.4v0.9H13.7z"/>
	<path class="st0" d="M9.9,35.2H6.1c-0.4,0-0.7,0.3-0.7,0.7v4.6c0,0.4,0.3,0.7,0.7,0.7h3.8c0.4,0,0.7-0.3,0.7-0.7v-4.6
		C10.6,35.5,10.3,35.2,9.9,35.2z M9.2,36.6v0.9H6.8v-0.9H9.2z M6.8,39.7v-0.9h2.4v0.9H6.8z"/>
	<path class="st0" d="M16.5,26h-3.3c-0.5,0-1,0.4-1,1v5.1c0,0.4,0.3,0.7,0.7,0.7h3.8c0.4,0,0.7-0.3,0.7-0.7v-5.1
		C17.5,26.4,17.1,26,16.5,26z M16.1,27.4V29h-2.4v-1.6H16.1z M13.7,31.3v-0.9h2.4v0.9H13.7z"/>
	<path class="st0" d="M9.6,26H6.3c-0.5,0-1,0.4-1,1v5.1c0,0.4,0.3,0.7,0.7,0.7h3.8c0.4,0,0.7-0.3,0.7-0.7v-5.1
		C10.6,26.4,10.2,26,9.6,26z M9.2,27.4V29H6.8v-1.6H9.2z M6.8,31.3v-0.9h2.4v0.9H6.8z"/>
	<path class="st0" d="M38.9,41.2h3.8c0.4,0,0.7-0.3,0.7-0.7v-4.6c0-0.4-0.3-0.7-0.7-0.7h-3.8c-0.4,0-0.7,0.3-0.7,0.7v4.6
		C38.2,40.9,38.5,41.2,38.9,41.2z M39.6,39.7v-0.9H42v0.9H39.6z M42,36.6v0.9h-2.4v-0.9H42z"/>
	<path class="st0" d="M32.1,41.2h3.8c0.4,0,0.7-0.3,0.7-0.7v-4.6c0-0.4-0.3-0.7-0.7-0.7h-3.8c-0.4,0-0.7,0.3-0.7,0.7v4.6
		C31.3,40.9,31.7,41.2,32.1,41.2z M32.8,39.7v-0.9h2.4v0.9H32.8z M35.2,36.6v0.9h-2.4v-0.9H35.2z"/>
	<path class="st0" d="M38.9,32.8h3.8c0.4,0,0.7-0.3,0.7-0.7v-5.1c0-0.5-0.4-1-1-1h-3.3c-0.5,0-1,0.4-1,1v5.1
		C38.2,32.4,38.5,32.8,38.9,32.8z M39.6,31.3v-0.9H42v0.9H39.6z M42,27.4V29h-2.4v-1.6H42z"/>
	<path class="st0" d="M32.1,32.8h3.8c0.4,0,0.7-0.3,0.7-0.7v-5.1c0-0.5-0.4-1-1-1h-3.3c-0.5,0-1,0.4-1,1v5.1
		C31.3,32.4,31.7,32.8,32.1,32.8z M32.8,31.3v-0.9h2.4v0.9H32.8z M35.2,27.4V29h-2.4v-1.6H35.2z"/>
</g>
</svg>