<?xml version="1.0" encoding="utf-8"?>
<!-- Generator: Adobe Illustrator 19.0.0, SVG Export Plug-In . SVG Version: 6.00 Build 0)  -->
<svg version="1.1" id="Layer_1" xmlns="http://www.w3.org/2000/svg" xmlns:xlink="http://www.w3.org/1999/xlink" x="0px" y="0px"
	 viewBox="0 0 46.4 46.4" style="enable-background:new 0 0 46.4 46.4;" xml:space="preserve">
<style type="text/css">
	.st0{fill:#FF5A5F;}
	.st1{fill:none;stroke:#FF5A5F;stroke-width:2;stroke-miterlimit:10;}
	.st2{fill:#FF5A5F;stroke:#FF5A5F;stroke-miterlimit:10;}
</style>
<g id="XMLID_649_">
	<g id="XMLID_651_">
		<circle id="XMLID_654_" class="st0" cx="102.7" cy="27.2" r="10.4"/>
		<g id="XMLID_652_">
			<path id="XMLID_653_" class="st0" d="M102.4,54.5c8,0,14.9-4.5,18.4-11c-4.6-4.5-10.9-7.2-17.8-7.2c-7.3,0-13.9,3.1-18.6,8
				C88.1,50.4,94.8,54.5,102.4,54.5z"/>
		</g>
	</g>
	<circle id="XMLID_650_" class="st1" cx="102.7" cy="31.5" r="22.5"/>
</g>
<g id="XMLID_646_">
	<circle id="XMLID_648_" class="st1" cx="23.2" cy="23.2" r="22.2"/>
	<path id="XMLID_647_" class="st2" d="M30.7,30.8c0.3-0.3,0.8-0.3,1.1,0c0.3,0.3,0.3,0.8,0,1.1c-1.1,1.1-2.4,2-3.9,2.6l0,0
		c-1.4,0.6-3,0.9-4.6,0.9c-1.6,0-3.2-0.3-4.6-0.9c-1.5-0.6-2.8-1.5-3.9-2.6c-1.1-1.1-2-2.4-2.6-3.9c-0.6-1.4-0.9-3-0.9-4.6
		c0-1.6,0.3-3.2,0.9-4.6c0.6-1.5,1.5-2.8,2.6-3.9s2.4-2,3.9-2.6c1.4-0.6,3-0.9,4.6-0.9c1.6,0,3.2,0.3,4.6,0.9
		c1.5,0.6,2.8,1.5,3.9,2.6c0.3,0.3,0.3,0.8,0,1.1c-0.3,0.3-0.8,0.3-1.1,0c-1-1-2.1-1.8-3.4-2.3c-1.2-0.5-2.6-0.8-4-0.8
		s-2.8,0.3-4,0.8c-1.3,0.5-2.4,1.3-3.4,2.3c-1,1-1.8,2.1-2.3,3.4c-0.5,1.2-0.8,2.6-0.8,4c0,1.4,0.3,2.8,0.8,4
		c0.5,1.3,1.3,2.4,2.3,3.4c1,1,2.1,1.8,3.4,2.3c1.2,0.5,2.6,0.8,4,0.8c1.4,0,2.8-0.3,4-0.8v0l0,0C28.6,32.5,29.8,31.7,30.7,30.8z"/>
</g>
</svg>
