<?xml version="1.0" encoding="utf-8"?>
<!-- Generator: Adobe Illustrator 19.0.0, SVG Export Plug-In . SVG Version: 6.00 Build 0)  -->
<svg version="1.1" id="Layer_1" xmlns="http://www.w3.org/2000/svg" xmlns:xlink="http://www.w3.org/1999/xlink" x="0px" y="0px"
	 viewBox="0 0 193.8 39.8" style="enable-background:new 0 0 193.8 39.8;" xml:space="preserve">
<style type="text/css">
	.st0{fill:#FF5A5F;}
</style>
<g id="XMLID_1200_">
	<path id="XMLID_1201_" class="st0" d="M1.9,19.9c0-7.4,4.1-13.7,11.9-13.7c3,0,5.3,1,7.8,3.4c0.9,1,1,2.6,0.1,3.7
		c-0.9,0.9-2.3,0.8-3.1-0.1c-1.4-1.6-2.8-2.1-4.8-2.1c-5.2,0-7.8,4.2-7.8,8.8c0,4.7,2.5,9.1,7.8,9.1c1.9,0,3.7-0.9,5.3-2.4
		c1.1-0.9,2.5-0.5,3.1,0.5c0.5,0.8,0.8,2.2-0.4,3.6c-2.4,2.5-5.2,3-8.1,3C5.6,33.5,1.9,27.2,1.9,19.9z"/>
	<path id="XMLID_1203_" class="st0" d="M26.7,9.2c0-1.3,1-2.3,2.1-2.3c1.1,0,2,1.1,2,2.3v19.1h9.2c3.3,0,3.4,5,0,5H28.9
		c-1.2,0-2.1-1-2.1-2.3V9.2z"/>
	<path id="XMLID_1205_" class="st0" d="M45.7,33.3c-1.1-0.7-1.8-2.1-1.1-3.7l9.8-21.4c0.9-2,3.4-2.1,4.2,0l9.6,21.4
		c1.4,3-2.7,5.3-3.9,2.4l-1.5-3.4H50.2L48.7,32C48.1,33.3,46.9,33.5,45.7,33.3z M60.3,23.6l-3.8-9.4l-4.2,9.4H60.3z"/>
	<path id="XMLID_1208_" class="st0" d="M70.8,12.6c0.8-7.4,10.7-8.7,15.4-4.7c2.3,2.1-0.1,5.4-2.2,3.7C81.6,9.9,75.9,9,75.1,13
		c-0.9,6.2,13.9,2.7,13.6,12.8c-0.2,9.7-12.7,9.9-17.4,5.6c-1.1-1-1.1-2.7-0.5-3.7c0.9-1,1.9-1.3,3-0.3c2.8,2.1,10,3.7,10.5-1.7
		C83.9,20,69.8,23.4,70.8,12.6z"/>
	<path id="XMLID_1210_" class="st0" d="M92.3,12.6c0.8-7.4,10.7-8.7,15.4-4.7c2.3,2.1-0.1,5.4-2.2,3.7C103,9.9,97.3,9,96.6,13
		c-0.9,6.2,13.9,2.7,13.6,12.8c-0.2,9.7-12.7,9.9-17.4,5.6c-1.1-1-1.1-2.7-0.5-3.7c0.9-1,1.9-1.3,3-0.3c2.8,2.1,10,3.7,10.5-1.7
		C105.4,20,91.2,23.4,92.3,12.6z"/>
	<path id="XMLID_1212_" class="st0" d="M114.1,9.2c0-1.3,1-2.3,2.1-2.3c1.1,0,2,1.1,2,2.3v19.1h9.2c3.3,0,3.4,5,0,5h-11.3
		c-1.2,0-2.1-1-2.1-2.3V9.2z"/>
	<path id="XMLID_1214_" class="st0" d="M133.8,9.2c0-3.1,4.5-3.2,4.5,0v21.7c0,3.2-4.5,3.2-4.5,0V9.2z"/>
	<path id="XMLID_1216_" class="st0" d="M155.3,33.6c-6.3,0.3-12.8-4.4-12.8-13.7c0-9.4,6.5-14,12.8-14c5.9,0.3,12.2,5,12.2,14
		S161.2,33.6,155.3,33.6z M154.9,10.9c-3.8,0-8,3-8,9c0,6,4.1,9,8,9c3.9,0,8.1-3,8.1-9C163,13.9,158.8,10.9,154.9,10.9z"/>
	<path id="XMLID_1219_" class="st0" d="M171.6,9.6c0-1.4,0.3-2.7,2-2.7c1.2,0,1.5,0.3,2.4,1.3L187.3,24V9.2c0-1.3,1-2.6,2.1-2.6
		c1.2,0,2.4,1.4,2.4,2.6v21.4c0,1.7-0.9,2.3-1.8,2.6c-1.2,0-1.8-0.3-2.8-1.3l-11.3-16v14.7c0,1.7-0.9,2.6-2.1,2.6s-2.3-1-2.3-2.6
		V9.6z"/>
</g>
</svg>
