<!-- Generator: Adobe Illustrator 19.0.0, SVG Export Plug-In  -->
<svg version="1.1"
	 xmlns="http://www.w3.org/2000/svg" xmlns:xlink="http://www.w3.org/1999/xlink" xmlns:a="http://ns.adobe.com/AdobeSVGViewerExtensions/3.0/"
	 x="0px" y="0px" width="46.4px" height="46.4px" viewBox="0 0 46.4 46.4" style="enable-background:new 0 0 46.4 46.4;"
	 xml:space="preserve">
<style type="text/css">
	.st0{fill:none;stroke:#FF5A5F;stroke-width:2;stroke-miterlimit:10;}
	.st1{fill:#FF5A5F;stroke:#FF5A5F;stroke-miterlimit:10;}
</style>
<defs>
</defs>
<g id="XMLID_1_">
	<circle id="XMLID_3_" class="st0" cx="23.2" cy="23.2" r="22.2"/>
	<path id="XMLID_2_" class="st1" d="M30.7,30.8c0.3-0.3,0.8-0.3,1.1,0s0.3,0.8,0,1.1c-1.1,1.1-2.4,2-3.9,2.6l0,0
		c-1.4,0.6-3,0.9-4.6,0.9s-3.2-0.3-4.6-0.9c-1.5-0.6-2.8-1.5-3.9-2.6s-2-2.4-2.6-3.9c-0.6-1.4-0.9-3-0.9-4.6s0.3-3.2,0.9-4.6
		c0.6-1.5,1.5-2.8,2.6-3.9s2.4-2,3.9-2.6c1.4-0.6,3-0.9,4.6-0.9s3.2,0.3,4.6,0.9c1.5,0.6,2.8,1.5,3.9,2.6c0.3,0.3,0.3,0.8,0,1.1
		c-0.3,0.3-0.8,0.3-1.1,0c-1-1-2.1-1.8-3.4-2.3c-1.2-0.5-2.6-0.8-4-0.8s-2.8,0.3-4,0.8C18,14.2,16.9,15,15.9,16s-1.8,2.1-2.3,3.4
		c-0.5,1.2-0.8,2.6-0.8,4s0.3,2.8,0.8,4c0.5,1.3,1.3,2.4,2.3,3.4s2.1,1.8,3.4,2.3c1.2,0.5,2.6,0.8,4,0.8s2.8-0.3,4-0.8l0,0l0,0
		C28.6,32.5,29.8,31.7,30.7,30.8z"/>
</g>
</svg>
