<?xml version="1.0" encoding="utf-8"?>
<!-- Generator: Adobe Illustrator 19.0.0, SVG Export Plug-In . SVG Version: 6.00 Build 0)  -->
<svg version="1.1" id="Layer_1" xmlns="http://www.w3.org/2000/svg" xmlns:xlink="http://www.w3.org/1999/xlink" x="0px" y="0px"
	 viewBox="-443 165 511.9 511.9" style="enable-background:new -443 165 511.9 511.9;" xml:space="preserve">
<style type="text/css">
	.st0{fill:#F2F2F2;}
	.st1{fill:#996459;}
	.st2{fill:#4BB9EC;}
	.st3{fill:#009BCA;}
	.st4{fill:#3482AC;}
	.st5{fill:#B4B6BC;}
	.st6{fill:#FFDCAD;}
	.st7{fill:#AEEFFF;}
	.st8{fill:#FFFFFF;}
	.st9{fill:#5C546A;}
	.st10{fill:#868491;}
	.st11{fill:#5D647F;}
	.st12{fill:#68748D;}
	.st13{fill:#FFE671;}
	.st14{fill:#FFCD00;}
</style>
<path class="st0" d="M-187.1,667.7L-187.1,667.7c-136.3,0-246.8-110.5-246.8-246.8v0c0-136.3,110.5-246.8,246.8-246.8h0
	c136.3,0,246.8,110.5,246.8,246.8v0C59.7,557.2-50.8,667.7-187.1,667.7z"/>
<g>
	<g>
		<path class="st1" d="M-55.4,475.8l-54.7-10.2c-0.4-0.1-0.7-0.1-1.1-0.1h-151.7c-0.4,0-0.7,0-1.1,0.1l-55.2,10.3
			c-28.2,7.9-42.9,35.6-42.9,59v32c0,11.7,10.5,21.2,23.3,21.2h303.4c12.9,0,23.3-9.5,23.3-21.2v-32
			C-12,511.6-26.8,483.8-55.4,475.8z"/>
	</g>
	<g>
		<path class="st2" d="M-158.8,588l-10.9-65.1c-0.5-2.8-2.9-4.9-5.8-4.9h-23.3c-2.9,0-5.3,2.1-5.8,4.9l-10.9,65.1L-158.8,588
			L-158.8,588z"/>
	</g>
	<g>
		<path class="st3" d="M-198.7,518c-1.5,0-2.8,0.6-3.9,1.5l38.9,38.9l-3.3-19.8l-20.6-20.6H-198.7z"/>
	</g>
	<g>
		<path class="st4" d="M-163.8,488.9c0-3.2-2.6-5.8-5.8-5.8h-29.2c-2.2,0-4.2,1.2-5.2,3.2l-5.8,11.7c-0.4,0.8-0.6,1.7-0.6,2.6
			l0,11.5c0,9.6,7.9,17.5,17.5,17.5h11.7c9.7,0,17.5-7.9,17.5-17.5L-163.8,488.9z"/>
	</g>
	<g>
		<path class="st5" d="M-184.3,466.4l-52.5-29.3c-2.5-1.4-5.7-0.7-7.5,1.6l-22,29.2c-1.5,2-1.6,4.7-0.2,6.8l35.6,52.5
			c2,2.9,5.1,4.7,8.5,5.1c0.4,0,0.8,0.1,1.1,0.1c3.1,0,6-1.2,8.2-3.4c0.1-0.1,0.3-0.3,0.4-0.5l24.2-30c0.3-0.3,0.5-0.7,0.7-1
			l5.8-11.5c0.4-0.8,0.6-1.7,0.6-2.6v-11.7C-181.3,469.3-182.4,467.4-184.3,466.4z"/>
	</g>
	<g>
		<path class="st5" d="M-189.9,466.4l52.5-29.3c2.5-1.4,5.7-0.7,7.5,1.6l22,29.2c1.5,2,1.6,4.7,0.2,6.8l-35.6,52.5
			c-2,2.9-5.1,4.7-8.5,5.1c-0.4,0-0.8,0.1-1.1,0.1c-3.1,0-6-1.2-8.2-3.4c-0.1-0.1-0.3-0.3-0.4-0.5l-24.2-30c-0.3-0.3-0.5-0.7-0.7-1
			l-5.8-11.5c-0.4-0.8-0.6-1.7-0.6-2.6v-11.7C-192.9,469.3-191.8,467.4-189.9,466.4z"/>
	</g>
	<g>
		<path class="st6" d="M-105.4,325.6l-11.5-11.7c0,0-39.5-10.7-122.7,0l-35,11.7c0,8,0,12.8,0,40.8c0,58,39.2,105,87.5,105
			s87.5-47,87.5-105c0-9.4,0-27.4,0-40.8C-101.1,327.3-105.4,325.6-105.4,325.6z"/>
	</g>
	<g>
		<circle class="st7" cx="-222.2" cy="366.4" r="23.3"/>
	</g>
	<g>
		<path class="st8" d="M-222.1,343.1c-6.4,0-12.2,2.6-16.4,6.8l33,33c4.2-4.2,6.8-10,6.8-16.4C-198.7,353.5-209.2,343.1-222.1,343.1
			z"/>
	</g>
	<g>
		<circle class="st7" cx="-152.2" cy="366.4" r="23.3"/>
	</g>
	<g>
		<path class="st8" d="M-152.1,343.1c-6.4,0-12.2,2.6-16.4,6.8l33,33c4.2-4.2,6.8-10,6.8-16.4C-128.7,353.5-139.2,343.1-152.1,343.1
			z"/>
	</g>
	<g>
		<g>
			<path class="st9" d="M-175.3,372.3c-3.2,0-5.8-2.6-5.8-5.8c0-3.2-2.6-5.8-5.8-5.8s-5.8,2.6-5.8,5.8c0,3.2-2.6,5.8-5.8,5.8
				s-5.8-2.6-5.8-5.8c0-9.7,7.9-17.5,17.5-17.5s17.5,7.9,17.5,17.5C-169.4,369.6-172.1,372.3-175.3,372.3z"/>
		</g>
	</g>
	<g>
		<g>
			<path class="st9" d="M-245.3,366.4h-29.3c-3.2,0-5.8-2.6-5.8-5.8s2.6-5.8,5.8-5.8h29.3c3.2,0,5.8,2.6,5.8,5.8
				S-242.1,366.4-245.3,366.4z"/>
		</g>
	</g>
	<g>
		<g>
			<path class="st9" d="M-99.6,366.4h-29c-3.2,0-5.8-2.6-5.8-5.8s2.6-5.8,5.8-5.8h29c3.2,0,5.8,2.6,5.8,5.8S-96.4,366.4-99.6,366.4z
				"/>
		</g>
	</g>
	<g>
		<g>
			<path class="st10" d="M-222,395.6c-16.1,0-29.2-13.1-29.2-29.2c0-16.1,13.1-29.2,29.2-29.2s29.2,13.1,29.2,29.2
				C-192.8,382.5-205.9,395.6-222,395.6z M-222,348.9c-9.7,0-17.5,7.9-17.5,17.5c0,9.7,7.9,17.5,17.5,17.5c9.7,0,17.5-7.9,17.5-17.5
				C-204.4,356.8-212.3,348.9-222,348.9z"/>
		</g>
	</g>
	<g>
		<g>
			<path class="st10" d="M-151.9,395.6c-16.1,0-29.2-13.1-29.2-29.2c0-16.1,13.1-29.2,29.2-29.2s29.2,13.1,29.2,29.2
				C-122.8,382.5-135.9,395.6-151.9,395.6z M-151.9,348.9c-9.7,0-17.5,7.9-17.5,17.5c0,9.7,7.9,17.5,17.5,17.5
				c9.7,0,17.5-7.9,17.5-17.5C-134.4,356.8-142.3,348.9-151.9,348.9z"/>
		</g>
	</g>
	<g>
		<g>
			<path class="st8" d="M-211.9,420.8c-3.2,0-6.3-1-8.8-4.2c-2-2.5-1.7-6.2,0.8-8.2c2.5-2,6.2-1.7,8.2,0.8c0.6,0.1,3.7-1,5.8-1.7
				c6.1-2.1,14.5-4.9,22.3,0.6c2.6,1.9,3.2,5.5,1.4,8.1c-1.9,2.6-5.5,3.2-8.1,1.4c-2.7-1.9-6.2-0.9-11.7,0.9
				C-205.1,419.6-208.5,420.8-211.9,420.8z"/>
		</g>
	</g>
	<g>
		<g>
			<path class="st8" d="M-162.2,420.8c-3.4,0-6.9-1.2-9.8-2.2c-5.5-1.9-9-2.9-11.7-0.9c-2.6,1.9-6.3,1.3-8.1-1.4
				c-1.9-2.6-1.3-6.3,1.4-8.1c7.8-5.5,16.2-2.7,22.3-0.6c2,0.7,5.1,1.8,6.1,1.5c2-2.5,5.5-2.8,8.1-0.8c2.5,2,2.7,5.8,0.7,8.3
				C-155.9,419.8-159,420.8-162.2,420.8z"/>
		</g>
	</g>
	<g>
		<path class="st8" d="M-163.8,436c-0.2-3.1-2.7-5.5-5.8-5.5h-34.9c-3.1,0-5.6,2.4-5.8,5.5c-0.1,1.7-2.4,43,18.8,68.3
			c1.1,1.3,2.7,2.1,4.5,2.1c1.7,0,3.4-0.8,4.5-2.1C-161.3,479-163.7,437.7-163.8,436z"/>
	</g>
	<g>
		<g>
			<path class="st9" d="M-70.4,366.3c-3.2,0-5.8-2.6-5.8-5.8v-69.6c0-3.2,2.6-5.8,5.8-5.8s5.8,2.6,5.8,5.8v69.6
				C-64.5,363.7-67.1,366.3-70.4,366.3z"/>
		</g>
	</g>
	<g>
		<path class="st9" d="M-51.4,258.7L-170.1,218c-12.8-4.4-27-4.4-39.9,0l-118.7,40.7c-6.2,2.1-10.2,7.7-10.2,14.3
			c0,6.6,4,12.2,10.2,14.3l58,19.9c0.6,0.2,1.2,0.3,1.9,0.3c0,0,0.1,0,0.1,0l163.4-2c0.6,0,1.2-0.1,1.8-0.3l52.1-17.9
			c6.2-2.1,10.2-7.7,10.2-14.3S-45.2,260.8-51.4,258.7z"/>
	</g>
	<g>
		<g>
			<path class="st11" d="M-207.1,317.7c6.2-0.4,12.8-0.7,20-0.7c7.2,0,13.8,0.3,20,0.7c23.8,1.4,52,5.3,67.5,13.7v-46.7
				c0-20-45.4-29.2-87.5-29.2s-87.5,9.1-87.5,29.2v46.7C-259.1,323-230.8,319-207.1,317.7z"/>
		</g>
		<g>
			<path class="st9" d="M-187.1,287.9c-25.3,0-67.3,3.3-87.5,14.3v14.8c0-5.1,30.7-17.5,87.5-17.5s87.5,12.4,87.5,17.5v-14.8
				C-119.8,291.2-161.7,287.9-187.1,287.9z"/>
		</g>
		<g>
			<path class="st12" d="M-187.1,255.6C-187.1,255.6-187.1,255.6-187.1,255.6l0,61.4c0,0,0,0,0,0c7.2,0,13.8,0.3,20,0.7
				c23.8,1.4,52,5.3,67.5,13.7v-46.7C-99.5,264.7-144.9,255.6-187.1,255.6z"/>
		</g>
		<g>
			<path class="st11" d="M-187.1,287.9v11.7c0,0,0,0,0,0c56.8,0,87.5,12.4,87.5,17.5v-14.8C-119.8,291.2-161.7,287.9-187.1,287.9
				C-187.1,287.9-187.1,287.9-187.1,287.9z"/>
		</g>
	</g>
	<g>
		<path class="st13" d="M-64.6,401.4h-11.7c-3.2,0-5.8-2.6-5.8-5.8v-23.3c0-6.4,5.2-11.7,11.7-11.7l0,0c6.4,0,11.7,5.2,11.7,11.7
			v23.3C-58.7,398.8-61.4,401.4-64.6,401.4z"/>
	</g>
	<g>
		<path class="st14" d="M-82.1,372.3v23.3c0,3.2,2.6,5.8,5.8,5.8h5.8v-40.8C-76.9,360.6-82.1,365.8-82.1,372.3z"/>
	</g>
	<g>
		<path class="st5" d="M-303.8,549c0-12.4-4.9-24.3-13.7-33l-25.9-25.9c-12.4,12.3-18.8,29.5-18.8,44.8v32
			c0,11.7,10.5,21.2,23.3,21.2h35L-303.8,549L-303.8,549L-303.8,549z"/>
	</g>
	<g>
		<path class="st5" d="M-30.8,490.1L-56.7,516c-8.8,8.8-13.7,20.6-13.7,33v39h35c12.9,0,23.3-9.5,23.3-21.2v-32
			C-12,519.6-18.4,502.4-30.8,490.1z"/>
	</g>
	<g>
		<polygon class="st3" points="-206.6,535.5 -209,549.7 -170.6,588 -158.8,588 -159.7,582.4 		"/>
	</g>
	<g>
		<polygon class="st3" points="-214.2,580.9 -207.1,588 -190.6,588 -211.8,566.8 		"/>
	</g>
</g>
</svg>
