<?xml version="1.0" encoding="utf-8"?>
<!-- Generator: Adobe Illustrator 19.0.0, SVG Export Plug-In . SVG Version: 6.00 Build 0)  -->
<svg version="1.1" id="Layer_1" xmlns="http://www.w3.org/2000/svg" xmlns:xlink="http://www.w3.org/1999/xlink" x="0px" y="0px"
	 viewBox="0 0 15.2 14.3" style="enable-background:new 0 0 15.2 14.3;" xml:space="preserve">
<style type="text/css">
	.st0{fill:none;stroke:#27B5AF;stroke-miterlimit:10;}
	.st1{fill:#FF5A5F;}
</style>
<g id="XMLID_3930_">
	<g id="XMLID_32_">
		<path id="XMLID_33_" class="st0" d="M7.6,0.5c-3.9,0-7.1,2.8-7.1,6.3c0,1.2,0.4,2.4,1.1,3.4c-0.1,1.5-0.5,2.7-1.1,3.2
			c-0.1,0.1-0.1,0.2,0,0.3c0,0.1,0.1,0.1,0.2,0.1c0,0,0,0,0,0c0.1,0,2.3-0.3,3.9-1.2c0.9,0.4,1.9,0.5,2.9,0.5c3.9,0,7.1-2.8,7.1-6.3
			S11.5,0.5,7.6,0.5z M7.6,12.6c-0.8,0-1.6-0.1-2.4-0.4c1-0.6,1-0.6,1-0.8c0-0.1,0-0.2-0.1-0.2c-0.1-0.1-0.2,0-0.3,0.1
			c-0.1,0.1-0.7,0.5-1.2,0.8l0,0c-1.1,0.6-2.5,1-3.3,1.1c0.5-0.9,0.7-2.1,0.8-3.1c0-0.1,0-0.1,0-0.2C1.3,9.1,1,7.9,1,6.8
			C1,3.6,3.9,1,7.6,1s6.6,2.6,6.6,5.8S11.2,12.6,7.6,12.6z"/>
	</g>
</g>
<g id="XMLID_3879_">
	<g id="XMLID_50_">
		<path id="XMLID_52_" class="st1" d="M59.5,9.5h-0.9V4.9c0-3-2.4-5.4-5.4-5.4h-0.4c-3,0-5.4,2.4-5.4,5.4v4.6h-0.9
			c-0.2,0-0.4,0.2-0.4,0.4v3.9c0,0.2,0.2,0.4,0.4,0.4h13.1c0.2,0,0.4-0.2,0.4-0.4V9.9C59.9,9.7,59.7,9.5,59.5,9.5z M48.2,4.9
			c0-2.5,2.1-4.6,4.6-4.6h0.4c2.5,0,4.6,2.1,4.6,4.6v4.6h-9.6V4.9z M59.1,13.4H46.9v-3h0.9h10.4h0.9V13.4z"/>
		<path id="XMLID_51_" class="st1" d="M53,1.6c-1.9,0-3.5,1.6-3.5,3.5c0,0.2,0.2,0.4,0.4,0.4c0.2,0,0.4-0.2,0.4-0.4
			c0-1.4,1.2-2.6,2.6-2.6c0.2,0,0.4-0.2,0.4-0.4S53.2,1.6,53,1.6z"/>
	</g>
</g>
</svg>
