<!-- Generator: Adobe Illustrator 19.0.0, SVG Export Plug-In  -->
<svg version="1.1"
	 xmlns="http://www.w3.org/2000/svg" xmlns:xlink="http://www.w3.org/1999/xlink" xmlns:a="http://ns.adobe.com/AdobeSVGViewerExtensions/3.0/"
	 x="0px" y="0px" width="46px" height="45px" viewBox="0 0 46 45" style="enable-background:new 0 0 46 45;" xml:space="preserve">
<style type="text/css">
	.st0{fill:#484848;}
</style>
<defs>
</defs>
<path class="st0" d="M5.6,0C2.5,0,0,2.5,0,5.6v7.1c0,2.6,0.5,5.2,1.5,7.6c1,2.3,2.4,4.4,4.2,6.2s3.9,3.2,6.2,4.2
	c2.4,1,5,1.5,7.6,1.5h7.2l-3.1,3.1c-2.2,2.2-2.2,5.8,0,8c2.2,2.2,5.8,2.2,8,0l12.6-12.6c2.2-2.2,2.2-5.8,0-8L31.7,10.1
	c-1.1-1.1-2.5-1.6-4-1.6c-1.4,0-2.9,0.5-4,1.6c-2.2,2.2-2.2,5.8,0,8l3,3h-7.1c-2.2,0-4.3-0.9-5.9-2.5c-1.6-1.6-2.5-3.7-2.5-5.9V5.6
	C11.3,2.5,8.7,0,5.6,0z"/>
</svg>