<?xml version="1.0" encoding="utf-8"?>
<!-- Generator: Adobe Illustrator 19.0.0, SVG Export Plug-In . SVG Version: 6.00 Build 0)  -->
<svg version="1.1" id="Layer_1" xmlns="http://www.w3.org/2000/svg" xmlns:xlink="http://www.w3.org/1999/xlink" x="0px" y="0px"
	 viewBox="-43 245 512 512" style="enable-background:new -43 245 512 512;" xml:space="preserve">
<style type="text/css">
	.st0{fill:#F2F2F2;}
</style>
<g>
	<g>
		<g>
			<path class="st0" d="M88.9,593.5L81.7,551l30.9-30.1c2.7-2.7,3.7-6.6,2.5-10.3s-4.3-6.3-8.1-6.8l-42.7-6.2L45.2,459
				c-1.7-3.4-5.2-5.6-9-5.6s-7.3,2.2-9,5.6L8.2,497.7l-42.7,6.2c-3.8,0.5-6.9,3.2-8.1,6.8c-1.2,3.6-0.2,7.6,2.5,10.3L-9.1,551
				l-7.3,42.5c-0.6,3.8,0.9,7.5,4,9.8c1.7,1.3,3.8,1.9,5.9,1.9c1.6,0,3.2-0.4,4.7-1.1L36.3,584l38.2,20.1c3.4,1.8,7.5,1.5,10.5-0.8
				C88,601.1,89.6,597.3,88.9,593.5z M63.9,540.4c-2.4,2.3-3.4,5.6-2.9,8.9l4.8,27.7l-24.9-13.1c-2.9-1.5-6.4-1.5-9.3,0L6.7,576.9
				l4.8-27.7c0.6-3.2-0.5-6.6-2.9-8.9l-20.1-19.6l27.8-4c3.3-0.5,6.1-2.5,7.5-5.5L36.3,486l12.4,25.2c1.5,3,4.3,5,7.5,5.5l27.8,4
				L63.9,540.4z"/>
			<path class="st0" d="M468.5,510.7c-1.2-3.6-4.3-6.3-8.1-6.8l-42.7-6.2L398.7,459c-1.7-3.4-5.2-5.6-9-5.6s-7.3,2.2-9,5.6
				l-19.1,38.7l-42.7,6.2c-3.8,0.5-6.9,3.2-8.1,6.8c-1.2,3.6-0.2,7.6,2.5,10.3l30.9,30.1l-7.3,42.5c-0.6,3.8,0.9,7.5,4,9.8
				s7.2,2.5,10.5,0.8l38.2-20.1l38.2,20.1c1.5,0.8,3.1,1.1,4.7,1.1c2.1,0,4.1-0.6,5.9-1.9c3.1-2.2,4.6-6,4-9.8l-7.3-42.5l30.9-30.1
				C468.7,518.3,469.7,514.3,468.5,510.7z M417.4,540.4c-2.4,2.3-3.4,5.6-2.9,8.9l4.8,27.7l-24.9-13.1c-1.5-0.8-3.1-1.1-4.7-1.1
				s-3.2,0.4-4.7,1.1l-24.9,13.1l4.8-27.7c0.6-3.2-0.5-6.6-2.9-8.9l-20.1-19.6l27.8-4c3.3-0.5,6.1-2.5,7.5-5.5l12.4-25.2l12.4,25.2
				c1.5,3,4.3,5,7.5,5.5l27.8,4L417.4,540.4z"/>
			<path class="st0" d="M285.3,559.8l-11.2-65.2l47.4-46.2c2.7-2.7,3.7-6.6,2.5-10.3c-1.2-3.6-4.3-6.3-8.1-6.8l-65.5-9.5l-29.3-59.3
				c-1.7-3.4-5.2-5.6-9-5.6c-3.8,0-7.3,2.2-9,5.6L174,421.8l-65.5,9.5c-3.8,0.5-6.9,3.2-8.1,6.8s-0.2,7.6,2.5,10.3l47.4,46.2
				l-11.2,65.2c-0.6,3.8,0.9,7.5,4,9.8c3.1,2.2,7.2,2.5,10.5,0.8l58.6-30.8l58.6,30.8c1.5,0.8,3.1,1.1,4.7,1.1
				c2.1,0,4.1-0.6,5.9-1.9C284.4,567.4,286,563.6,285.3,559.8z M253.5,492.8l8.6,50.4l-45.3-23.8c-1.5-0.8-3.1-1.1-4.7-1.1
				c-1.6,0-3.2,0.4-4.7,1.1l-45.3,23.8l8.6-50.4c0.6-3.2-0.5-6.6-2.9-8.9l-36.6-35.7l50.6-7.4c3.3-0.5,6.1-2.5,7.5-5.5l22.6-45.9
				l22.6,45.9c1.5,3,4.3,5,7.5,5.5l50.6,7.4l-36.6,35.7C254,486.2,253,489.6,253.5,492.8z"/>
			<path class="st0" d="M235,625.1H96c-5.5,0-10,4.5-10,10s4.5,10,10,10h139c5.5,0,10-4.5,10-10S240.5,625.1,235,625.1z"/>
			<path class="st0" d="M330,625.1h-43c-5.5,0-10,4.5-10,10s4.5,10,10,10h43c5.5,0,10-4.5,10-10S335.5,625.1,330,625.1z"/>
		</g>
	</g>
</g>
</svg>
