<?xml version="1.0" encoding="utf-8"?>
<!-- Generator: Adobe Illustrator 19.0.0, SVG Export Plug-In . SVG Version: 6.00 Build 0)  -->
<svg version="1.1" id="Layer_1" xmlns="http://www.w3.org/2000/svg" xmlns:xlink="http://www.w3.org/1999/xlink" x="0px" y="0px"
	 viewBox="0 0 15.9 16.9" style="enable-background:new 0 0 15.9 16.9;" xml:space="preserve">
<style type="text/css">
	.st0{fill:none;stroke:#27B5AF;stroke-miterlimit:10;}
	.st1{fill:#FF5A5F;}
</style>
<g id="XMLID_3930_">
	<g id="XMLID_32_">
		<path id="XMLID_33_" class="st0" d="M-37.4,2.1c-3.9,0-7.1,2.8-7.1,6.3c0,1.2,0.4,2.4,1.1,3.4c-0.1,1.5-0.5,2.7-1.1,3.2
			c-0.1,0.1-0.1,0.2,0,0.3c0,0.1,0.1,0.1,0.2,0.1c0,0,0,0,0,0c0.1,0,2.3-0.3,3.9-1.2c0.9,0.4,1.9,0.5,2.9,0.5c3.9,0,7.1-2.8,7.1-6.3
			S-33.5,2.1-37.4,2.1z M-37.4,14.2c-0.8,0-1.6-0.1-2.4-0.4c1-0.6,1-0.6,1-0.8c0-0.1,0-0.2-0.1-0.2c-0.1-0.1-0.2,0-0.3,0.1
			c-0.1,0.1-0.7,0.5-1.2,0.8l0,0c-1.1,0.6-2.5,1-3.3,1.1c0.5-0.9,0.7-2.1,0.8-3.1c0-0.1,0-0.1,0-0.2c-0.7-1-1.1-2.1-1.1-3.2
			c0-3.2,3-5.8,6.6-5.8s6.6,2.6,6.6,5.8S-33.8,14.2-37.4,14.2z"/>
	</g>
</g>
<g id="XMLID_3879_">
	<g id="XMLID_50_">
		<path id="XMLID_52_" class="st1" d="M14.5,11.1h-0.9V6.5c0-3-2.4-5.4-5.4-5.4H7.8c-3,0-5.4,2.4-5.4,5.4v4.6H1.4
			c-0.2,0-0.4,0.2-0.4,0.4v3.9c0,0.2,0.2,0.4,0.4,0.4h13.1c0.2,0,0.4-0.2,0.4-0.4v-3.9C14.9,11.3,14.7,11.1,14.5,11.1z M3.2,6.5
			c0-2.5,2.1-4.6,4.6-4.6h0.4c2.5,0,4.6,2.1,4.6,4.6v4.6H3.2V6.5z M14.1,15H1.9v-3h0.9h10.4h0.9V15z"/>
		<path id="XMLID_51_" class="st1" d="M8,3.1C6,3.1,4.5,4.7,4.5,6.6c0,0.2,0.2,0.4,0.4,0.4c0.2,0,0.4-0.2,0.4-0.4C5.4,5.2,6.5,4,8,4
			c0.2,0,0.4-0.2,0.4-0.4S8.2,3.1,8,3.1z"/>
	</g>
</g>
</svg>
