<?xml version="1.0" encoding="utf-8"?>
<!-- Generator: Adobe Illustrator 19.0.0, SVG Export Plug-In . SVG Version: 6.00 Build 0)  -->
<svg version="1.1" id="Layer_1" xmlns="http://www.w3.org/2000/svg" xmlns:xlink="http://www.w3.org/1999/xlink" x="0px" y="0px"
	 viewBox="-281 404.8 32.8 33.1" style="enable-background:new -281 404.8 32.8 33.1;" xml:space="preserve">
<style type="text/css">
	.st0{fill:#26B4AE;}
	.st1{fill:#494949;}
	.st2{fill:none;stroke:#26B4AE;stroke-width:2;stroke-miterlimit:10;}
</style>
<g>
	<g id="XMLID_1037_">
		<g id="XMLID_1038_">
			<path id="XMLID_1043_" class="st0" d="M-270.7,429.3h-4.3c-0.1,0-0.2-0.1-0.2-0.2v-11.2c0-0.1,0.1-0.2,0.2-0.2h4.3
				c0.1,0,0.2,0.1,0.2,0.2v11.2C-270.5,429.2-270.6,429.3-270.7,429.3z"/>
			<path id="XMLID_1039_" class="st1" d="M-254.6,427.2l1.3-8.2v-0.1c0-1.7-1.4-3.1-3.1-3.1h-4.9v-3.5c0-1.5-0.4-2.5-1.3-3.2
				c-1.3-1-3.2-0.4-3.3-0.4c-0.2,0.1-0.4,0.3-0.4,0.5v3.9c0,3.1-3.6,4.2-3.7,4.2s-0.1,0.1-0.2,0.1c-0.2-0.2-0.5-0.4-0.8-0.4h-3.8
				c-0.6,0-1,0.5-1,1v10.8c0,0.6,0.5,1,1,1h3.8c0.4,0,0.7-0.2,0.9-0.5c0.6,0.5,1.3,0.9,2.2,0.9h9.6
				C-256.2,430.2-254.8,429.1-254.6,427.2z M-271,428.7h-3.7v-10.6h3.7V428.7z M-269.9,427.1v-8.7c0.1,0,0.2,0,0.3,0
				c0.2,0,4.6-1.3,4.6-5.3v-3.5c0.5-0.1,1.3-0.1,1.9,0.3s0.8,1.2,0.8,2.3v4.1c0,0.3,0.3,0.6,0.6,0.6h5.4c1.1,0,2,0.9,2,2l-1.3,8.2
				l0,0c-0.2,1.4-1,2.1-2.6,2.1h-9.6C-269,429.1-269.9,428.2-269.9,427.1z"/>
		</g>
	</g>
	<circle id="XMLID_1036_" class="st2" cx="-264.6" cy="421.3" r="15.3"/>
</g>
</svg>
