<?xml version="1.0" encoding="utf-8"?>
<!-- Generator: Adobe Illustrator 19.0.0, SVG Export Plug-In . SVG Version: 6.00 Build 0)  -->
<svg version="1.1" id="Layer_1" xmlns="http://www.w3.org/2000/svg" xmlns:xlink="http://www.w3.org/1999/xlink" x="0px" y="0px"
	 viewBox="0 0 32.8 33.1" style="enable-background:new 0 0 32.8 33.1;" xml:space="preserve">
<style type="text/css">
	.st0{fill:#FF5A5F;}
	.st1{fill:#484848;}
</style>
<g id="XMLID_681_">
	<g id="XMLID_682_">
		<path id="XMLID_694_" class="st0" d="M22.6,8.7h4.3c0.1,0,0.2,0.1,0.2,0.2v11.2c0,0.1-0.1,0.2-0.2,0.2h-4.3
			c-0.1,0-0.2-0.1-0.2-0.2V9C22.4,8.8,22.5,8.7,22.6,8.7z"/>
		<path id="XMLID_683_" class="st1" d="M6.5,10.9l-1.3,8.2c0,0,0,0.1,0,0.1c0,1.7,1.4,3.1,3.1,3.1h4.9v3.5c0,1.5,0.4,2.5,1.3,3.2
			c1.3,1,3.2,0.4,3.3,0.4c0.2-0.1,0.4-0.3,0.4-0.5v-3.9c0-3.1,3.6-4.2,3.7-4.2c0.1,0,0.1-0.1,0.2-0.1c0.2,0.2,0.5,0.4,0.8,0.4h3.8
			c0.6,0,1-0.5,1-1V9.2c0-0.6-0.5-1-1-1h-3.8c-0.4,0-0.7,0.2-0.9,0.5c-0.6-0.5-1.3-0.9-2.2-0.9h-9.6C8.1,7.8,6.7,8.9,6.5,10.9z
			 M22.9,9.3h3.7v10.6h-3.7V9.3z M21.8,11v8.7c-0.1,0-0.2,0-0.3,0c-0.2,0-4.6,1.3-4.6,5.3v3.5c-0.5,0.1-1.3,0.1-1.9-0.3
			c-0.6-0.4-0.8-1.2-0.8-2.3v-4.1c0-0.3-0.3-0.6-0.6-0.6H8.3c-1.1,0-2-0.9-2-2L7.6,11c0,0,0,0,0,0c0.2-1.4,1-2.1,2.6-2.1h9.6
			C20.9,8.9,21.8,9.8,21.8,11z"/>
	</g>
</g>
</svg>
