<?xml version="1.0" encoding="utf-8"?>
<!-- Generator: Adobe Illustrator 19.0.0, SVG Export Plug-In . SVG Version: 6.00 Build 0)  -->
<svg version="1.1" id="Layer_1" xmlns="http://www.w3.org/2000/svg" xmlns:xlink="http://www.w3.org/1999/xlink" x="0px" y="0px"
	 viewBox="0 0 15.2 14.8" style="enable-background:new 0 0 15.2 14.8;" xml:space="preserve">
<style type="text/css">
	.st0{fill:none;stroke:#27B5AF;stroke-miterlimit:10;}
	.st1{fill:#F2F2F2;}
	.st2{fill:none;stroke:#FFFFFF;stroke-width:2;stroke-miterlimit:10;}
	.st3{fill:#DCE0E0;}
</style>
<g id="XMLID_3930_">
	<g id="XMLID_32_">
		<path id="XMLID_33_" class="st0" d="M129.4-195.4c-3.9,0-7.1,2.8-7.1,6.3c0,1.2,0.4,2.4,1.1,3.4c-0.1,1.5-0.5,2.7-1.1,3.2
			c-0.1,0.1-0.1,0.2,0,0.3c0,0.1,0.1,0.1,0.2,0.1c0,0,0,0,0,0c0.1,0,2.3-0.3,3.9-1.2c0.9,0.4,1.9,0.5,2.9,0.5c3.9,0,7.1-2.8,7.1-6.3
			S133.3-195.4,129.4-195.4z M129.4-183.3c-0.8,0-1.6-0.1-2.4-0.4c1-0.6,1-0.6,1-0.8c0-0.1,0-0.2-0.1-0.2c-0.1-0.1-0.2,0-0.3,0.1
			c-0.1,0.1-0.7,0.5-1.2,0.8l0,0c-1.1,0.6-2.5,1-3.3,1.1c0.5-0.9,0.7-2.1,0.8-3.1c0-0.1,0-0.1,0-0.2c-0.7-1-1.1-2.1-1.1-3.2
			c0-3.2,3-5.8,6.6-5.8s6.6,2.6,6.6,5.8S133.1-183.3,129.4-183.3z"/>
	</g>
</g>
<g id="XMLID_3879_">
	<g id="XMLID_50_">
		<path id="XMLID_52_" class="st1" d="M181.4-186.4h-0.9v-4.6c0-3-2.4-5.4-5.4-5.4h-0.4c-3,0-5.4,2.4-5.4,5.4v4.6h-0.9
			c-0.2,0-0.4,0.2-0.4,0.4v3.9c0,0.2,0.2,0.4,0.4,0.4h13.1c0.2,0,0.4-0.2,0.4-0.4v-3.9C181.8-186.2,181.6-186.4,181.4-186.4z
			 M170-191c0-2.5,2.1-4.6,4.6-4.6h0.4c2.5,0,4.6,2.1,4.6,4.6v4.6H170V-191z M180.9-182.5h-12.2v-3h0.9H180h0.9V-182.5z"/>
		<path id="XMLID_51_" class="st1" d="M174.8-194.4c-1.9,0-3.5,1.6-3.5,3.5c0,0.2,0.2,0.4,0.4,0.4s0.4-0.2,0.4-0.4
			c0-1.4,1.2-2.6,2.6-2.6c0.2,0,0.4-0.2,0.4-0.4C175.3-194.2,175.1-194.4,174.8-194.4z"/>
	</g>
</g>
<g id="XMLID_846_">
	<circle id="XMLID_885_" class="st2" cx="-1088.8" cy="-1126.9" r="66.8"/>
	<g id="XMLID_847_">
		<rect id="XMLID_850_" x="-1127.7" y="-1148.4" class="st2" width="79.7" height="50"/>
		<line id="XMLID_849_" class="st2" x1="-1127.7" y1="-1148.4" x2="-1087.4" y2="-1123.6"/>
		<line id="XMLID_848_" class="st2" x1="-1088.4" y1="-1123.6" x2="-1048.1" y2="-1148.4"/>
	</g>
</g>
<g id="XMLID_2788_" transform="translate(0 -540.36)">
	<g id="XMLID_2789_">
		<g id="XMLID_2793_">
			<path id="XMLID_2800_" class="st1" d="M12.9,542.4H1.6c-0.1,0-0.3,0.1-0.3,0.2v10.9c0,0.1,0.1,0.2,0.3,0.2h11.2
				c0.1,0,0.3-0.1,0.3-0.2v-10.9C13.1,542.5,13,542.4,12.9,542.4z M3.2,553.3H1.9v-10.5h1.3V553.3z M12.6,553.3H3.7v-10.5h8.9V553.3
				z"/>
			<path id="XMLID_2799_" class="st1" d="M6,547.4c0-0.1-0.1-0.2-0.3-0.2c-0.1,0-0.3,0.1-0.3,0.2v3.3c0,0.1,0.1,0.2,0.2,0.2
				c0,0,0.1,0,0.1,0c0.1,0,0.1,0,0.2-0.1l4.4-5v2.7c0,0.1,0.1,0.2,0.3,0.2s0.3-0.1,0.3-0.2v-3.3c0-0.1-0.1-0.2-0.2-0.2
				c-0.1,0-0.2,0-0.3,0.1l-4.4,5L6,547.4L6,547.4z"/>
			<path id="XMLID_2798_" class="st1" d="M9.3,549.5c0,0.1,0.1,0.2,0.3,0.2h1l-1.3,1.8c-0.1,0.1-0.1,0.2,0,0.2
				c0,0.1,0.1,0.1,0.2,0.1h1.5c0.1,0,0.3-0.1,0.3-0.2s-0.1-0.2-0.3-0.2h-1l1.3-1.8c0.1-0.1,0.1-0.2,0-0.2c0-0.1-0.1-0.1-0.2-0.1H9.6
				C9.4,549.3,9.3,549.4,9.3,549.5z"/>
			<path id="XMLID_2795_" class="st1" d="M4.9,546.9C4.9,546.9,4.9,546.9,4.9,546.9c0.2,0,0.3,0,0.3-0.1l0.2-0.6h0.7l0.2,0.6
				c0,0.1,0.2,0.2,0.3,0.1c0.1,0,0.2-0.2,0.2-0.3l-0.3-0.7L6,544.5c0-0.1-0.1-0.2-0.2-0.2s-0.2,0.1-0.2,0.2L5,545.9l-0.3,0.7
				C4.7,546.7,4.8,546.8,4.9,546.9z M5.7,545.3l0.2,0.5H5.6L5.7,545.3z"/>
		</g>
	</g>
</g>
<g id="XMLID_2807_">
	<g id="XMLID_283_">
		<g id="XMLID_284_">
			<g id="XMLID_285_">
				<path id="XMLID_294_" class="st3" d="M40.5,11.5l-0.3-1.9l1.4-1.3c0.1-0.1,0.2-0.3,0.1-0.5c-0.1-0.2-0.2-0.3-0.4-0.3l-1.9-0.3
					l-0.8-1.7c-0.1-0.2-0.2-0.2-0.4-0.2c-0.2,0-0.3,0.1-0.4,0.2l-0.8,1.7L35,7.5c-0.2,0-0.3,0.1-0.4,0.3c-0.1,0.2,0,0.3,0.1,0.5
					l1.4,1.3l-0.3,1.9c0,0.2,0,0.3,0.2,0.4c0.1,0.1,0.2,0.1,0.3,0.1c0.1,0,0.1,0,0.2-0.1l1.7-0.9l1.7,0.9c0.1,0.1,0.3,0.1,0.5,0
					C40.4,11.8,40.5,11.7,40.5,11.5z M39.4,9.1c-0.1,0.1-0.2,0.2-0.1,0.4l0.2,1.2l-1.1-0.6c-0.1-0.1-0.3-0.1-0.4,0l-1.1,0.6L37,9.5
					c0-0.1,0-0.3-0.1-0.4L36,8.3l1.2-0.2c0.1,0,0.3-0.1,0.3-0.2l0.5-1.1l0.5,1.1C38.7,8,38.9,8.1,39,8.1l1.2,0.2L39.4,9.1z"/>
				<path id="XMLID_291_" class="st3" d="M57.2,7.8c-0.1-0.2-0.2-0.3-0.4-0.3L55,7.3l-0.8-1.7c-0.1-0.2-0.2-0.2-0.4-0.2
					s-0.3,0.1-0.4,0.2l-0.8,1.7l-1.9,0.3c-0.2,0-0.3,0.1-0.4,0.3c-0.1,0.2,0,0.3,0.1,0.5l1.4,1.3l-0.3,1.9c0,0.2,0,0.3,0.2,0.4
					c0.1,0.1,0.3,0.1,0.5,0l1.7-0.9l1.7,0.9c0.1,0,0.1,0.1,0.2,0.1c0.1,0,0.2,0,0.3-0.1c0.1-0.1,0.2-0.3,0.2-0.4l-0.3-1.9l1.4-1.3
					C57.2,8.2,57.3,8,57.2,7.8z M54.9,9.1c-0.1,0.1-0.2,0.2-0.1,0.4l0.2,1.2l-1.1-0.6c-0.1,0-0.1-0.1-0.2-0.1c-0.1,0-0.1,0-0.2,0.1
					l-1.1,0.6l0.2-1.2c0-0.1,0-0.3-0.1-0.4l-0.9-0.9l1.2-0.2c0.1,0,0.3-0.1,0.3-0.2l0.5-1.1l0.5,1.1c0.1,0.1,0.2,0.2,0.3,0.2
					l1.2,0.2L54.9,9.1z"/>
				<path id="XMLID_288_" class="st3" d="M49.1,10l-0.5-2.9l2.1-2c0.1-0.1,0.2-0.3,0.1-0.5c-0.1-0.2-0.2-0.3-0.4-0.3l-2.9-0.4
					l-1.3-2.6C46.2,1.1,46.1,1,45.9,1c-0.2,0-0.3,0.1-0.4,0.2l-1.3,2.6l-2.9,0.4c-0.2,0-0.3,0.1-0.4,0.3c-0.1,0.2,0,0.3,0.1,0.5
					l2.1,2L42.7,10c0,0.2,0,0.3,0.2,0.4c0.1,0.1,0.3,0.1,0.5,0l2.6-1.4l2.6,1.4c0.1,0,0.1,0.1,0.2,0.1c0.1,0,0.2,0,0.3-0.1
					C49.1,10.3,49.1,10.2,49.1,10z M47.7,7l0.4,2.2l-2-1.1c-0.1,0-0.1-0.1-0.2-0.1c-0.1,0-0.1,0-0.2,0.1l-2,1.1L44.1,7
					c0-0.1,0-0.3-0.1-0.4l-1.6-1.6l2.2-0.3c0.1,0,0.3-0.1,0.3-0.2l1-2l1,2c0.1,0.1,0.2,0.2,0.3,0.2l2.2,0.3l-1.6,1.6
					C47.7,6.8,47.7,6.9,47.7,7z"/>
				<path id="XMLID_287_" class="st3" d="M46.9,12.9h-6.1c-0.2,0-0.4,0.2-0.4,0.4s0.2,0.4,0.4,0.4h6.1c0.2,0,0.4-0.2,0.4-0.4
					S47.1,12.9,46.9,12.9z"/>
				<path id="XMLID_286_" class="st3" d="M51.1,12.9h-1.9c-0.2,0-0.4,0.2-0.4,0.4s0.2,0.4,0.4,0.4h1.9c0.2,0,0.4-0.2,0.4-0.4
					S51.3,12.9,51.1,12.9z"/>
			</g>
		</g>
	</g>
</g>
</svg>
